<?xml version="1.0" encoding="utf-8" standalone="no"?>
<!DOCTYPE svg PUBLIC "-//W3C//DTD SVG 1.1//EN"
  "http://www.w3.org/Graphics/SVG/1.1/DTD/svg11.dtd">
<svg xmlns:xlink="http://www.w3.org/1999/xlink" width="797.606964pt" height="342.76925pt" viewBox="0 0 797.606964 342.76925" xmlns="http://www.w3.org/2000/svg" version="1.1">
 <metadata>
  <rdf:RDF xmlns:dc="http://purl.org/dc/elements/1.1/" xmlns:cc="http://creativecommons.org/ns#" xmlns:rdf="http://www.w3.org/1999/02/22-rdf-syntax-ns#">
   <cc:Work>
    <dc:type rdf:resource="http://purl.org/dc/dcmitype/StillImage"/>
    <dc:date>2024-03-21T11:49:24.880654</dc:date>
    <dc:format>image/svg+xml</dc:format>
    <dc:creator>
     <cc:Agent>
      <dc:title>Matplotlib v3.8.0, https://matplotlib.org/</dc:title>
     </cc:Agent>
    </dc:creator>
   </cc:Work>
  </rdf:RDF>
 </metadata>
 <defs>
  <style type="text/css">*{stroke-linejoin: round; stroke-linecap: butt}</style>
 </defs>
 <g id="figure_1">
  <g id="patch_1">
   <path d="M 0 342.76925 
L 797.606964 342.76925 
L 797.606964 0 
L 0 0 
z
" style="fill: #ffffff"/>
  </g>
  <g id="axes_1">
   <g id="patch_2">
    <path d="M 56.703125 301.34175 
L 402.131696 301.34175 
L 402.131696 24.14175 
L 56.703125 24.14175 
z
" style="fill: #ffffff"/>
   </g>
   <g id="PolyCollection_1">
    <path d="M 72.404424 38.019639 
L 72.404424 44.978498 
L 84.965463 66.613047 
L 97.526502 75.30668 
L 110.087541 93.165067 
L 122.64858 98.957121 
L 135.209619 109.267974 
L 147.770657 116.150108 
L 160.331696 123.296473 
L 172.892735 143.67357 
L 185.453774 154.924515 
L 198.014813 158.147755 
L 210.575852 168.493567 
L 223.136891 181.497968 
L 235.69793 193.222394 
L 248.258969 198.870386 
L 260.820008 205.716135 
L 273.381047 217.019162 
L 285.942086 224.072665 
L 298.503125 230.184732 
L 311.064164 235.231918 
L 323.625203 238.317133 
L 336.186242 243.021211 
L 348.747281 257.808427 
L 361.30832 257.867423 
L 373.869359 268.697364 
L 386.430398 276.357126 
L 386.430398 267.709701 
L 386.430398 267.709701 
L 373.869359 260.74927 
L 361.30832 251.353841 
L 348.747281 249.141548 
L 336.186242 237.406847 
L 323.625203 230.189303 
L 311.064164 222.897401 
L 298.503125 221.572504 
L 285.942086 215.87923 
L 273.381047 211.465425 
L 260.820008 199.11207 
L 248.258969 191.416566 
L 235.69793 187.624994 
L 223.136891 175.069854 
L 210.575852 157.08553 
L 198.014813 146.501654 
L 185.453774 144.811283 
L 172.892735 129.050078 
L 160.331696 112.003276 
L 147.770657 101.853748 
L 135.209619 94.595982 
L 122.64858 85.786354 
L 110.087541 82.266276 
L 97.526502 66.461114 
L 84.965463 59.51021 
L 72.404424 38.019639 
z
" clip-path="url(#pbca93549e4)" style="fill: #1f77b4; fill-opacity: 0.2"/>
   </g>
   <g id="PolyCollection_2">
    <path d="M 72.404424 36.74175 
L 72.404424 49.10411 
L 84.965463 71.507918 
L 97.526502 79.580139 
L 110.087541 95.111853 
L 122.64858 100.039214 
L 135.209619 110.709201 
L 147.770657 118.73623 
L 160.331696 125.569088 
L 172.892735 141.807082 
L 185.453774 153.18384 
L 198.014813 155.940538 
L 210.575852 162.003902 
L 223.136891 177.218021 
L 235.69793 190.232544 
L 248.258969 194.440054 
L 260.820008 199.607045 
L 273.381047 213.045973 
L 285.942086 217.742284 
L 298.503125 224.464998 
L 311.064164 228.680495 
L 323.625203 232.226885 
L 336.186242 238.012241 
L 348.747281 249.759133 
L 361.30832 250.900594 
L 373.869359 258.643564 
L 386.430398 265.811078 
L 386.430398 260.982067 
L 386.430398 260.982067 
L 373.869359 254.323905 
L 361.30832 243.488784 
L 348.747281 241.644767 
L 336.186242 229.749319 
L 323.625203 221.582972 
L 311.064164 217.398804 
L 298.503125 213.480612 
L 285.942086 207.53385 
L 273.381047 203.283702 
L 260.820008 191.404087 
L 248.258969 186.143122 
L 235.69793 180.409191 
L 223.136891 170.741822 
L 210.575852 155.300563 
L 198.014813 147.103013 
L 185.453774 146.496855 
L 172.892735 132.960386 
L 160.331696 113.711851 
L 147.770657 104.465082 
L 135.209619 100.274061 
L 122.64858 89.355713 
L 110.087541 85.60544 
L 97.526502 66.906103 
L 84.965463 58.362342 
L 72.404424 36.74175 
z
" clip-path="url(#pbca93549e4)" style="fill: #ff7f0e; fill-opacity: 0.2"/>
   </g>
   <g id="PolyCollection_3">
    <path d="M 72.404424 39.215513 
L 72.404424 42.208884 
L 84.965463 62.564802 
L 97.526502 72.387781 
L 110.087541 91.320725 
L 122.64858 97.510209 
L 135.209619 109.137681 
L 147.770657 116.725838 
L 160.331696 125.581506 
L 172.892735 146.076262 
L 185.453774 159.287238 
L 198.014813 162.831479 
L 210.575852 172.713924 
L 223.136891 190.648473 
L 235.69793 205.848466 
L 248.258969 211.328042 
L 260.820008 219.533969 
L 273.381047 231.881747 
L 285.942086 236.397439 
L 298.503125 244.122867 
L 311.064164 247.233558 
L 323.625203 251.80408 
L 336.186242 258.628477 
L 348.747281 271.390617 
L 361.30832 270.286817 
L 373.869359 281.403632 
L 386.430398 288.74175 
L 386.430398 283.727358 
L 386.430398 283.727358 
L 373.869359 276.030819 
L 361.30832 266.334404 
L 348.747281 264.61856 
L 336.186242 251.571962 
L 323.625203 245.262842 
L 311.064164 240.445987 
L 298.503125 237.043984 
L 285.942086 232.103049 
L 273.381047 225.893435 
L 260.820008 211.663768 
L 248.258969 205.620276 
L 235.69793 200.044677 
L 223.136891 183.74293 
L 210.575852 166.552141 
L 198.014813 157.501813 
L 185.453774 153.783482 
L 172.892735 138.058713 
L 160.331696 118.148999 
L 147.770657 109.678557 
L 135.209619 103.531732 
L 122.64858 92.143132 
L 110.087541 86.05103 
L 97.526502 66.604456 
L 84.965463 58.154124 
L 72.404424 39.215513 
z
" clip-path="url(#pbca93549e4)" style="fill: #2ca02c; fill-opacity: 0.2"/>
   </g>
   <g id="matplotlib.axis_1">
    <g id="xtick_1">
     <g id="line2d_1">
      <path d="M 72.404424 301.34175 
L 72.404424 24.14175 
" clip-path="url(#pbca93549e4)" style="fill: none; stroke: #b0b0b0; stroke-width: 0.8; stroke-linecap: square"/>
     </g>
     <g id="line2d_2">
      <defs>
       <path id="m7ebd5a3c28" d="M 0 0 
L 0 3.5 
" style="stroke: #000000; stroke-width: 0.8"/>
      </defs>
      <g>
       <use xlink:href="#m7ebd5a3c28" x="72.404424" y="301.34175" style="stroke: #000000; stroke-width: 0.8"/>
      </g>
     </g>
     <g id="text_1">
      <!-- 0 -->
      <g transform="translate(68.586924 317.459875) scale(0.12 -0.12)">
       <defs>
        <path id="DejaVuSerif-30" d="M 2034 219 
Q 2513 219 2750 744 
Q 2988 1269 2988 2328 
Q 2988 3391 2750 3916 
Q 2513 4441 2034 4441 
Q 1556 4441 1318 3916 
Q 1081 3391 1081 2328 
Q 1081 1269 1318 744 
Q 1556 219 2034 219 
z
M 2034 -91 
Q 1275 -91 848 546 
Q 422 1184 422 2328 
Q 422 3475 848 4112 
Q 1275 4750 2034 4750 
Q 2797 4750 3222 4112 
Q 3647 3475 3647 2328 
Q 3647 1184 3222 546 
Q 2797 -91 2034 -91 
z
" transform="scale(0.015625)"/>
       </defs>
       <use xlink:href="#DejaVuSerif-30"/>
      </g>
     </g>
    </g>
    <g id="xtick_2">
     <g id="line2d_3">
      <path d="M 135.209619 301.34175 
L 135.209619 24.14175 
" clip-path="url(#pbca93549e4)" style="fill: none; stroke: #b0b0b0; stroke-width: 0.8; stroke-linecap: square"/>
     </g>
     <g id="line2d_4">
      <g>
       <use xlink:href="#m7ebd5a3c28" x="135.209619" y="301.34175" style="stroke: #000000; stroke-width: 0.8"/>
      </g>
     </g>
     <g id="text_2">
      <!-- 5 -->
      <g transform="translate(131.392119 317.459875) scale(0.12 -0.12)">
       <defs>
        <path id="DejaVuSerif-35" d="M 3219 4666 
L 3219 4153 
L 1081 4153 
L 1081 2816 
Q 1244 2928 1461 2984 
Q 1678 3041 1947 3041 
Q 2703 3041 3140 2622 
Q 3578 2203 3578 1478 
Q 3578 738 3136 323 
Q 2694 -91 1894 -91 
Q 1572 -91 1234 -12 
Q 897 66 544 225 
L 544 1131 
L 897 1131 
Q 925 688 1179 453 
Q 1434 219 1894 219 
Q 2388 219 2653 544 
Q 2919 869 2919 1478 
Q 2919 2084 2655 2407 
Q 2391 2731 1894 2731 
Q 1613 2731 1398 2631 
Q 1184 2531 1019 2322 
L 750 2322 
L 750 4666 
L 3219 4666 
z
" transform="scale(0.015625)"/>
       </defs>
       <use xlink:href="#DejaVuSerif-35"/>
      </g>
     </g>
    </g>
    <g id="xtick_3">
     <g id="line2d_5">
      <path d="M 198.014813 301.34175 
L 198.014813 24.14175 
" clip-path="url(#pbca93549e4)" style="fill: none; stroke: #b0b0b0; stroke-width: 0.8; stroke-linecap: square"/>
     </g>
     <g id="line2d_6">
      <g>
       <use xlink:href="#m7ebd5a3c28" x="198.014813" y="301.34175" style="stroke: #000000; stroke-width: 0.8"/>
      </g>
     </g>
     <g id="text_3">
      <!-- 10 -->
      <g transform="translate(190.379813 317.459875) scale(0.12 -0.12)">
       <defs>
        <path id="DejaVuSerif-31" d="M 909 0 
L 909 331 
L 1722 331 
L 1722 4213 
L 781 3603 
L 781 4013 
L 1919 4750 
L 2350 4750 
L 2350 331 
L 3163 331 
L 3163 0 
L 909 0 
z
" transform="scale(0.015625)"/>
       </defs>
       <use xlink:href="#DejaVuSerif-31"/>
       <use xlink:href="#DejaVuSerif-30" x="63.623047"/>
      </g>
     </g>
    </g>
    <g id="xtick_4">
     <g id="line2d_7">
      <path d="M 260.820008 301.34175 
L 260.820008 24.14175 
" clip-path="url(#pbca93549e4)" style="fill: none; stroke: #b0b0b0; stroke-width: 0.8; stroke-linecap: square"/>
     </g>
     <g id="line2d_8">
      <g>
       <use xlink:href="#m7ebd5a3c28" x="260.820008" y="301.34175" style="stroke: #000000; stroke-width: 0.8"/>
      </g>
     </g>
     <g id="text_4">
      <!-- 15 -->
      <g transform="translate(253.185008 317.459875) scale(0.12 -0.12)">
       <use xlink:href="#DejaVuSerif-31"/>
       <use xlink:href="#DejaVuSerif-35" x="63.623047"/>
      </g>
     </g>
    </g>
    <g id="xtick_5">
     <g id="line2d_9">
      <path d="M 323.625203 301.34175 
L 323.625203 24.14175 
" clip-path="url(#pbca93549e4)" style="fill: none; stroke: #b0b0b0; stroke-width: 0.8; stroke-linecap: square"/>
     </g>
     <g id="line2d_10">
      <g>
       <use xlink:href="#m7ebd5a3c28" x="323.625203" y="301.34175" style="stroke: #000000; stroke-width: 0.8"/>
      </g>
     </g>
     <g id="text_5">
      <!-- 20 -->
      <g transform="translate(315.990203 317.459875) scale(0.12 -0.12)">
       <defs>
        <path id="DejaVuSerif-32" d="M 819 3553 
L 469 3553 
L 469 4384 
Q 803 4563 1142 4656 
Q 1481 4750 1806 4750 
Q 2534 4750 2956 4397 
Q 3378 4044 3378 3438 
Q 3378 2753 2422 1800 
Q 2347 1728 2309 1691 
L 1131 513 
L 3078 513 
L 3078 1088 
L 3444 1088 
L 3444 0 
L 434 0 
L 434 341 
L 1850 1753 
Q 2319 2222 2519 2614 
Q 2719 3006 2719 3438 
Q 2719 3909 2473 4175 
Q 2228 4441 1797 4441 
Q 1350 4441 1106 4219 
Q 863 3997 819 3553 
z
" transform="scale(0.015625)"/>
       </defs>
       <use xlink:href="#DejaVuSerif-32"/>
       <use xlink:href="#DejaVuSerif-30" x="63.623047"/>
      </g>
     </g>
    </g>
    <g id="xtick_6">
     <g id="line2d_11">
      <path d="M 386.430398 301.34175 
L 386.430398 24.14175 
" clip-path="url(#pbca93549e4)" style="fill: none; stroke: #b0b0b0; stroke-width: 0.8; stroke-linecap: square"/>
     </g>
     <g id="line2d_12">
      <g>
       <use xlink:href="#m7ebd5a3c28" x="386.430398" y="301.34175" style="stroke: #000000; stroke-width: 0.8"/>
      </g>
     </g>
     <g id="text_6">
      <!-- 25 -->
      <g transform="translate(378.795398 317.459875) scale(0.12 -0.12)">
       <use xlink:href="#DejaVuSerif-32"/>
       <use xlink:href="#DejaVuSerif-35" x="63.623047"/>
      </g>
     </g>
    </g>
    <g id="text_7">
     <!-- Phase -->
     <g transform="translate(211.308661 333.073625) scale(0.12 -0.12)">
      <defs>
       <path id="DejaVuSerif-50" d="M 1581 2375 
L 2406 2375 
Q 2872 2375 3115 2626 
Q 3359 2878 3359 3353 
Q 3359 3831 3115 4081 
Q 2872 4331 2406 4331 
L 1581 4331 
L 1581 2375 
z
M 353 0 
L 353 331 
L 947 331 
L 947 4331 
L 353 4331 
L 353 4666 
L 2559 4666 
Q 3259 4666 3668 4311 
Q 4078 3956 4078 3353 
Q 4078 2753 3668 2397 
Q 3259 2041 2559 2041 
L 1581 2041 
L 1581 331 
L 2303 331 
L 2303 0 
L 353 0 
z
" transform="scale(0.015625)"/>
       <path id="DejaVuSerif-68" d="M 263 0 
L 263 331 
L 781 331 
L 781 4531 
L 231 4531 
L 231 4863 
L 1356 4863 
L 1356 2731 
Q 1516 3069 1770 3241 
Q 2025 3413 2363 3413 
Q 2913 3413 3172 3097 
Q 3431 2781 3431 2113 
L 3431 331 
L 3944 331 
L 3944 0 
L 2356 0 
L 2356 331 
L 2853 331 
L 2853 1931 
Q 2853 2541 2704 2764 
Q 2556 2988 2175 2988 
Q 1775 2988 1565 2697 
Q 1356 2406 1356 1850 
L 1356 331 
L 1856 331 
L 1856 0 
L 263 0 
z
" transform="scale(0.015625)"/>
       <path id="DejaVuSerif-61" d="M 2547 1044 
L 2547 1747 
L 1806 1747 
Q 1378 1747 1168 1562 
Q 959 1378 959 997 
Q 959 650 1171 447 
Q 1384 244 1747 244 
Q 2106 244 2326 466 
Q 2547 688 2547 1044 
z
M 3122 2075 
L 3122 331 
L 3634 331 
L 3634 0 
L 2547 0 
L 2547 359 
Q 2356 128 2106 18 
Q 1856 -91 1522 -91 
Q 969 -91 644 203 
Q 319 497 319 997 
Q 319 1513 691 1797 
Q 1063 2081 1741 2081 
L 2547 2081 
L 2547 2309 
Q 2547 2688 2317 2895 
Q 2088 3103 1672 3103 
Q 1328 3103 1125 2947 
Q 922 2791 872 2484 
L 575 2484 
L 575 3156 
Q 875 3284 1158 3348 
Q 1441 3413 1709 3413 
Q 2400 3413 2761 3070 
Q 3122 2728 3122 2075 
z
" transform="scale(0.015625)"/>
       <path id="DejaVuSerif-73" d="M 359 184 
L 359 959 
L 691 959 
Q 703 588 923 403 
Q 1144 219 1575 219 
Q 1963 219 2166 364 
Q 2369 509 2369 788 
Q 2369 1006 2220 1140 
Q 2072 1275 1594 1428 
L 1178 1569 
Q 750 1706 558 1912 
Q 366 2119 366 2438 
Q 366 2894 700 3153 
Q 1034 3413 1625 3413 
Q 1888 3413 2178 3344 
Q 2469 3275 2778 3144 
L 2778 2419 
L 2447 2419 
Q 2434 2741 2221 2922 
Q 2009 3103 1644 3103 
Q 1281 3103 1095 2975 
Q 909 2847 909 2591 
Q 909 2381 1050 2254 
Q 1191 2128 1613 1997 
L 2069 1856 
Q 2541 1709 2748 1489 
Q 2956 1269 2956 922 
Q 2956 450 2595 179 
Q 2234 -91 1600 -91 
Q 1278 -91 972 -22 
Q 666 47 359 184 
z
" transform="scale(0.015625)"/>
       <path id="DejaVuSerif-65" d="M 3469 1600 
L 991 1600 
L 991 1575 
Q 991 903 1244 561 
Q 1497 219 1991 219 
Q 2369 219 2611 417 
Q 2853 616 2950 1006 
L 3413 1006 
Q 3275 459 2904 184 
Q 2534 -91 1931 -91 
Q 1203 -91 761 389 
Q 319 869 319 1663 
Q 319 2450 753 2931 
Q 1188 3413 1894 3413 
Q 2647 3413 3050 2948 
Q 3453 2484 3469 1600 
z
M 2791 1931 
Q 2772 2513 2545 2808 
Q 2319 3103 1894 3103 
Q 1497 3103 1269 2806 
Q 1041 2509 991 1931 
L 2791 1931 
z
" transform="scale(0.015625)"/>
      </defs>
      <use xlink:href="#DejaVuSerif-50"/>
      <use xlink:href="#DejaVuSerif-68" x="67.285156"/>
      <use xlink:href="#DejaVuSerif-61" x="131.689453"/>
      <use xlink:href="#DejaVuSerif-73" x="191.308594"/>
      <use xlink:href="#DejaVuSerif-65" x="242.626953"/>
     </g>
    </g>
   </g>
   <g id="matplotlib.axis_2">
    <g id="ytick_1">
     <g id="line2d_13">
      <path d="M 56.703125 283.630387 
L 402.131696 283.630387 
" clip-path="url(#pbca93549e4)" style="fill: none; stroke: #b0b0b0; stroke-width: 0.8; stroke-linecap: square"/>
     </g>
     <g id="line2d_14">
      <defs>
       <path id="m0197557491" d="M 0 0 
L -3.5 0 
" style="stroke: #000000; stroke-width: 0.8"/>
      </defs>
      <g>
       <use xlink:href="#m0197557491" x="56.703125" y="283.630387" style="stroke: #000000; stroke-width: 0.8"/>
      </g>
     </g>
     <g id="text_8">
      <!-- 62.5 -->
      <g transform="translate(22.984375 288.18945) scale(0.12 -0.12)">
       <defs>
        <path id="DejaVuSerif-36" d="M 2094 219 
Q 2534 219 2771 542 
Q 3009 866 3009 1472 
Q 3009 2078 2771 2401 
Q 2534 2725 2094 2725 
Q 1647 2725 1412 2412 
Q 1178 2100 1178 1509 
Q 1178 888 1415 553 
Q 1653 219 2094 219 
z
M 1075 2569 
Q 1288 2803 1556 2918 
Q 1825 3034 2163 3034 
Q 2859 3034 3264 2615 
Q 3669 2197 3669 1472 
Q 3669 763 3233 336 
Q 2797 -91 2069 -91 
Q 1278 -91 853 498 
Q 428 1088 428 2181 
Q 428 3406 931 4078 
Q 1434 4750 2350 4750 
Q 2597 4750 2869 4703 
Q 3141 4656 3425 4563 
L 3425 3794 
L 3072 3794 
Q 3034 4109 2831 4275 
Q 2628 4441 2284 4441 
Q 1678 4441 1381 3981 
Q 1084 3522 1075 2569 
z
" transform="scale(0.015625)"/>
        <path id="DejaVuSerif-2e" d="M 603 325 
Q 603 500 722 622 
Q 841 744 1019 744 
Q 1191 744 1312 622 
Q 1434 500 1434 325 
Q 1434 153 1312 31 
Q 1191 -91 1019 -91 
Q 841 -91 722 29 
Q 603 150 603 325 
z
" transform="scale(0.015625)"/>
       </defs>
       <use xlink:href="#DejaVuSerif-36"/>
       <use xlink:href="#DejaVuSerif-32" x="63.623047"/>
       <use xlink:href="#DejaVuSerif-2e" x="127.246094"/>
       <use xlink:href="#DejaVuSerif-35" x="159.033203"/>
      </g>
     </g>
    </g>
    <g id="ytick_2">
     <g id="line2d_15">
      <path d="M 56.703125 250.844113 
L 402.131696 250.844113 
" clip-path="url(#pbca93549e4)" style="fill: none; stroke: #b0b0b0; stroke-width: 0.8; stroke-linecap: square"/>
     </g>
     <g id="line2d_16">
      <g>
       <use xlink:href="#m0197557491" x="56.703125" y="250.844113" style="stroke: #000000; stroke-width: 0.8"/>
      </g>
     </g>
     <g id="text_9">
      <!-- 65.0 -->
      <g transform="translate(22.984375 255.403176) scale(0.12 -0.12)">
       <use xlink:href="#DejaVuSerif-36"/>
       <use xlink:href="#DejaVuSerif-35" x="63.623047"/>
       <use xlink:href="#DejaVuSerif-2e" x="127.246094"/>
       <use xlink:href="#DejaVuSerif-30" x="159.033203"/>
      </g>
     </g>
    </g>
    <g id="ytick_3">
     <g id="line2d_17">
      <path d="M 56.703125 218.057839 
L 402.131696 218.057839 
" clip-path="url(#pbca93549e4)" style="fill: none; stroke: #b0b0b0; stroke-width: 0.8; stroke-linecap: square"/>
     </g>
     <g id="line2d_18">
      <g>
       <use xlink:href="#m0197557491" x="56.703125" y="218.057839" style="stroke: #000000; stroke-width: 0.8"/>
      </g>
     </g>
     <g id="text_10">
      <!-- 67.5 -->
      <g transform="translate(22.984375 222.616901) scale(0.12 -0.12)">
       <defs>
        <path id="DejaVuSerif-37" d="M 3609 4347 
L 1784 0 
L 1319 0 
L 3059 4153 
L 903 4153 
L 903 3578 
L 538 3578 
L 538 4666 
L 3609 4666 
L 3609 4347 
z
" transform="scale(0.015625)"/>
       </defs>
       <use xlink:href="#DejaVuSerif-36"/>
       <use xlink:href="#DejaVuSerif-37" x="63.623047"/>
       <use xlink:href="#DejaVuSerif-2e" x="127.246094"/>
       <use xlink:href="#DejaVuSerif-35" x="159.033203"/>
      </g>
     </g>
    </g>
    <g id="ytick_4">
     <g id="line2d_19">
      <path d="M 56.703125 185.271565 
L 402.131696 185.271565 
" clip-path="url(#pbca93549e4)" style="fill: none; stroke: #b0b0b0; stroke-width: 0.8; stroke-linecap: square"/>
     </g>
     <g id="line2d_20">
      <g>
       <use xlink:href="#m0197557491" x="56.703125" y="185.271565" style="stroke: #000000; stroke-width: 0.8"/>
      </g>
     </g>
     <g id="text_11">
      <!-- 70.0 -->
      <g transform="translate(22.984375 189.830627) scale(0.12 -0.12)">
       <use xlink:href="#DejaVuSerif-37"/>
       <use xlink:href="#DejaVuSerif-30" x="63.623047"/>
       <use xlink:href="#DejaVuSerif-2e" x="127.246094"/>
       <use xlink:href="#DejaVuSerif-30" x="159.033203"/>
      </g>
     </g>
    </g>
    <g id="ytick_5">
     <g id="line2d_21">
      <path d="M 56.703125 152.485291 
L 402.131696 152.485291 
" clip-path="url(#pbca93549e4)" style="fill: none; stroke: #b0b0b0; stroke-width: 0.8; stroke-linecap: square"/>
     </g>
     <g id="line2d_22">
      <g>
       <use xlink:href="#m0197557491" x="56.703125" y="152.485291" style="stroke: #000000; stroke-width: 0.8"/>
      </g>
     </g>
     <g id="text_12">
      <!-- 72.5 -->
      <g transform="translate(22.984375 157.044353) scale(0.12 -0.12)">
       <use xlink:href="#DejaVuSerif-37"/>
       <use xlink:href="#DejaVuSerif-32" x="63.623047"/>
       <use xlink:href="#DejaVuSerif-2e" x="127.246094"/>
       <use xlink:href="#DejaVuSerif-35" x="159.033203"/>
      </g>
     </g>
    </g>
    <g id="ytick_6">
     <g id="line2d_23">
      <path d="M 56.703125 119.699016 
L 402.131696 119.699016 
" clip-path="url(#pbca93549e4)" style="fill: none; stroke: #b0b0b0; stroke-width: 0.8; stroke-linecap: square"/>
     </g>
     <g id="line2d_24">
      <g>
       <use xlink:href="#m0197557491" x="56.703125" y="119.699016" style="stroke: #000000; stroke-width: 0.8"/>
      </g>
     </g>
     <g id="text_13">
      <!-- 75.0 -->
      <g transform="translate(22.984375 124.258079) scale(0.12 -0.12)">
       <use xlink:href="#DejaVuSerif-37"/>
       <use xlink:href="#DejaVuSerif-35" x="63.623047"/>
       <use xlink:href="#DejaVuSerif-2e" x="127.246094"/>
       <use xlink:href="#DejaVuSerif-30" x="159.033203"/>
      </g>
     </g>
    </g>
    <g id="ytick_7">
     <g id="line2d_25">
      <path d="M 56.703125 86.912742 
L 402.131696 86.912742 
" clip-path="url(#pbca93549e4)" style="fill: none; stroke: #b0b0b0; stroke-width: 0.8; stroke-linecap: square"/>
     </g>
     <g id="line2d_26">
      <g>
       <use xlink:href="#m0197557491" x="56.703125" y="86.912742" style="stroke: #000000; stroke-width: 0.8"/>
      </g>
     </g>
     <g id="text_14">
      <!-- 77.5 -->
      <g transform="translate(22.984375 91.471805) scale(0.12 -0.12)">
       <use xlink:href="#DejaVuSerif-37"/>
       <use xlink:href="#DejaVuSerif-37" x="63.623047"/>
       <use xlink:href="#DejaVuSerif-2e" x="127.246094"/>
       <use xlink:href="#DejaVuSerif-35" x="159.033203"/>
      </g>
     </g>
    </g>
    <g id="ytick_8">
     <g id="line2d_27">
      <path d="M 56.703125 54.126468 
L 402.131696 54.126468 
" clip-path="url(#pbca93549e4)" style="fill: none; stroke: #b0b0b0; stroke-width: 0.8; stroke-linecap: square"/>
     </g>
     <g id="line2d_28">
      <g>
       <use xlink:href="#m0197557491" x="56.703125" y="54.126468" style="stroke: #000000; stroke-width: 0.8"/>
      </g>
     </g>
     <g id="text_15">
      <!-- 80.0 -->
      <g transform="translate(22.984375 58.685531) scale(0.12 -0.12)">
       <defs>
        <path id="DejaVuSerif-38" d="M 2981 1275 
Q 2981 1775 2732 2051 
Q 2484 2328 2034 2328 
Q 1584 2328 1336 2051 
Q 1088 1775 1088 1275 
Q 1088 772 1336 495 
Q 1584 219 2034 219 
Q 2484 219 2732 495 
Q 2981 772 2981 1275 
z
M 2853 3541 
Q 2853 3966 2637 4203 
Q 2422 4441 2034 4441 
Q 1650 4441 1433 4203 
Q 1216 3966 1216 3541 
Q 1216 3113 1433 2875 
Q 1650 2638 2034 2638 
Q 2422 2638 2637 2875 
Q 2853 3113 2853 3541 
z
M 2516 2484 
Q 3047 2413 3344 2092 
Q 3641 1772 3641 1275 
Q 3641 619 3225 264 
Q 2809 -91 2034 -91 
Q 1263 -91 845 264 
Q 428 619 428 1275 
Q 428 1772 725 2092 
Q 1022 2413 1556 2484 
Q 1084 2569 832 2842 
Q 581 3116 581 3541 
Q 581 4103 968 4426 
Q 1356 4750 2034 4750 
Q 2713 4750 3100 4426 
Q 3488 4103 3488 3541 
Q 3488 3116 3236 2842 
Q 2984 2569 2516 2484 
z
" transform="scale(0.015625)"/>
       </defs>
       <use xlink:href="#DejaVuSerif-38"/>
       <use xlink:href="#DejaVuSerif-30" x="63.623047"/>
       <use xlink:href="#DejaVuSerif-2e" x="127.246094"/>
       <use xlink:href="#DejaVuSerif-30" x="159.033203"/>
      </g>
     </g>
    </g>
    <g id="text_16">
     <!-- Top-1 Accuracy (%) -->
     <g transform="translate(16.318125 221.88675) rotate(-90) scale(0.12 -0.12)">
      <defs>
       <path id="DejaVuSerif-54" d="M 1222 0 
L 1222 331 
L 1819 331 
L 1819 4294 
L 447 4294 
L 447 3566 
L 63 3566 
L 63 4666 
L 4206 4666 
L 4206 3566 
L 3822 3566 
L 3822 4294 
L 2450 4294 
L 2450 331 
L 3047 331 
L 3047 0 
L 1222 0 
z
" transform="scale(0.015625)"/>
       <path id="DejaVuSerif-6f" d="M 1925 219 
Q 2388 219 2623 584 
Q 2859 950 2859 1663 
Q 2859 2375 2623 2739 
Q 2388 3103 1925 3103 
Q 1463 3103 1227 2739 
Q 991 2375 991 1663 
Q 991 950 1228 584 
Q 1466 219 1925 219 
z
M 1925 -91 
Q 1200 -91 759 389 
Q 319 869 319 1663 
Q 319 2456 758 2934 
Q 1197 3413 1925 3413 
Q 2653 3413 3092 2934 
Q 3531 2456 3531 1663 
Q 3531 869 3092 389 
Q 2653 -91 1925 -91 
z
" transform="scale(0.015625)"/>
       <path id="DejaVuSerif-70" d="M 1313 1825 
L 1313 1497 
Q 1313 897 1542 583 
Q 1772 269 2209 269 
Q 2650 269 2876 622 
Q 3103 975 3103 1663 
Q 3103 2353 2876 2703 
Q 2650 3053 2209 3053 
Q 1772 3053 1542 2737 
Q 1313 2422 1313 1825 
z
M 738 2988 
L 184 2988 
L 184 3322 
L 1313 3322 
L 1313 2803 
Q 1481 3116 1742 3264 
Q 2003 3413 2388 3413 
Q 3000 3413 3387 2928 
Q 3775 2444 3775 1663 
Q 3775 881 3387 395 
Q 3000 -91 2388 -91 
Q 2003 -91 1742 57 
Q 1481 206 1313 519 
L 1313 -997 
L 1856 -997 
L 1856 -1331 
L 184 -1331 
L 184 -997 
L 738 -997 
L 738 2988 
z
" transform="scale(0.015625)"/>
       <path id="DejaVuSerif-2d" d="M 281 1959 
L 1881 1959 
L 1881 1472 
L 281 1472 
L 281 1959 
z
" transform="scale(0.015625)"/>
       <path id="DejaVuSerif-20" transform="scale(0.015625)"/>
       <path id="DejaVuSerif-41" d="M 1281 1691 
L 2994 1691 
L 2138 3909 
L 1281 1691 
z
M -38 0 
L -38 331 
L 372 331 
L 2034 4666 
L 2559 4666 
L 4225 331 
L 4684 331 
L 4684 0 
L 2988 0 
L 2988 331 
L 3506 331 
L 3116 1356 
L 1153 1356 
L 763 331 
L 1275 331 
L 1275 0 
L -38 0 
z
" transform="scale(0.015625)"/>
       <path id="DejaVuSerif-63" d="M 3291 997 
Q 3169 466 2822 187 
Q 2475 -91 1925 -91 
Q 1200 -91 759 389 
Q 319 869 319 1663 
Q 319 2459 759 2936 
Q 1200 3413 1925 3413 
Q 2241 3413 2553 3339 
Q 2866 3266 3181 3116 
L 3181 2266 
L 2847 2266 
Q 2781 2703 2561 2903 
Q 2341 3103 1931 3103 
Q 1466 3103 1228 2742 
Q 991 2381 991 1663 
Q 991 944 1227 581 
Q 1463 219 1931 219 
Q 2303 219 2525 412 
Q 2747 606 2828 997 
L 3291 997 
z
" transform="scale(0.015625)"/>
       <path id="DejaVuSerif-75" d="M 2266 3322 
L 3341 3322 
L 3341 331 
L 3884 331 
L 3884 0 
L 2766 0 
L 2766 588 
Q 2606 256 2353 82 
Q 2100 -91 1766 -91 
Q 1213 -91 952 223 
Q 691 538 691 1209 
L 691 2988 
L 172 2988 
L 172 3322 
L 1269 3322 
L 1269 1388 
Q 1269 781 1417 556 
Q 1566 331 1947 331 
Q 2347 331 2556 625 
Q 2766 919 2766 1478 
L 2766 2988 
L 2266 2988 
L 2266 3322 
z
" transform="scale(0.015625)"/>
       <path id="DejaVuSerif-72" d="M 3059 3328 
L 3059 2497 
L 2728 2497 
Q 2713 2744 2591 2866 
Q 2469 2988 2234 2988 
Q 1809 2988 1582 2694 
Q 1356 2400 1356 1850 
L 1356 331 
L 2022 331 
L 2022 0 
L 263 0 
L 263 331 
L 781 331 
L 781 2994 
L 231 2994 
L 231 3322 
L 1356 3322 
L 1356 2731 
Q 1525 3078 1790 3245 
Q 2056 3413 2438 3413 
Q 2578 3413 2733 3391 
Q 2888 3369 3059 3328 
z
" transform="scale(0.015625)"/>
       <path id="DejaVuSerif-79" d="M 1381 -609 
L 1600 -56 
L 359 2988 
L -19 2988 
L -19 3322 
L 1509 3322 
L 1509 2988 
L 978 2988 
L 1913 703 
L 2847 2988 
L 2350 2988 
L 2350 3322 
L 3597 3322 
L 3597 2988 
L 3225 2988 
L 1703 -750 
Q 1547 -1138 1356 -1280 
Q 1166 -1422 819 -1422 
Q 672 -1422 517 -1397 
Q 363 -1372 206 -1325 
L 206 -691 
L 500 -691 
Q 519 -903 608 -995 
Q 697 -1088 884 -1088 
Q 1056 -1088 1161 -992 
Q 1266 -897 1381 -609 
z
" transform="scale(0.015625)"/>
       <path id="DejaVuSerif-28" d="M 2041 -997 
Q 1281 -656 893 83 
Q 506 822 506 1931 
Q 506 3044 893 3783 
Q 1281 4522 2041 4863 
L 2041 4556 
Q 1559 4225 1350 3623 
Q 1141 3022 1141 1931 
Q 1141 844 1350 242 
Q 1559 -359 2041 -691 
L 2041 -997 
z
" transform="scale(0.015625)"/>
       <path id="DejaVuSerif-25" d="M 1434 4459 
Q 1159 4459 1004 4200 
Q 850 3941 850 3475 
Q 850 3016 1008 2753 
Q 1166 2491 1434 2491 
Q 1700 2491 1854 2752 
Q 2009 3013 2009 3475 
Q 2009 3938 1854 4198 
Q 1700 4459 1434 4459 
z
M 4653 2169 
Q 4381 2169 4226 1906 
Q 4072 1644 4072 1178 
Q 4072 719 4228 458 
Q 4384 197 4653 197 
Q 4922 197 5075 458 
Q 5228 719 5228 1178 
Q 5228 1641 5073 1905 
Q 4919 2169 4653 2169 
z
M 4653 2450 
Q 5147 2450 5437 2106 
Q 5728 1763 5728 1178 
Q 5728 594 5436 251 
Q 5144 -91 4653 -91 
Q 4153 -91 3862 251 
Q 3572 594 3572 1178 
Q 3572 1766 3864 2108 
Q 4156 2450 4653 2450 
z
M 4263 4750 
L 4738 4750 
L 1819 -91 
L 1344 -91 
L 4263 4750 
z
M 1428 4750 
Q 1922 4750 2215 4408 
Q 2509 4066 2509 3481 
Q 2509 2891 2217 2550 
Q 1925 2209 1428 2209 
Q 931 2209 642 2551 
Q 353 2894 353 3481 
Q 353 4063 643 4406 
Q 934 4750 1428 4750 
z
" transform="scale(0.015625)"/>
       <path id="DejaVuSerif-29" d="M 453 -997 
L 453 -691 
Q 934 -359 1145 242 
Q 1356 844 1356 1931 
Q 1356 3022 1145 3623 
Q 934 4225 453 4556 
L 453 4863 
Q 1216 4522 1603 3783 
Q 1991 3044 1991 1931 
Q 1991 822 1603 83 
Q 1216 -656 453 -997 
z
" transform="scale(0.015625)"/>
      </defs>
      <use xlink:href="#DejaVuSerif-54"/>
      <use xlink:href="#DejaVuSerif-6f" x="58.949219"/>
      <use xlink:href="#DejaVuSerif-70" x="119.154297"/>
      <use xlink:href="#DejaVuSerif-2d" x="183.167969"/>
      <use xlink:href="#DejaVuSerif-31" x="216.957031"/>
      <use xlink:href="#DejaVuSerif-20" x="280.580078"/>
      <use xlink:href="#DejaVuSerif-41" x="312.367188"/>
      <use xlink:href="#DejaVuSerif-63" x="384.583984"/>
      <use xlink:href="#DejaVuSerif-63" x="440.589844"/>
      <use xlink:href="#DejaVuSerif-75" x="496.595703"/>
      <use xlink:href="#DejaVuSerif-72" x="561"/>
      <use xlink:href="#DejaVuSerif-61" x="608.802734"/>
      <use xlink:href="#DejaVuSerif-63" x="668.421875"/>
      <use xlink:href="#DejaVuSerif-79" x="724.427734"/>
      <use xlink:href="#DejaVuSerif-20" x="780.921875"/>
      <use xlink:href="#DejaVuSerif-28" x="812.708984"/>
      <use xlink:href="#DejaVuSerif-25" x="851.722656"/>
      <use xlink:href="#DejaVuSerif-29" x="946.742188"/>
     </g>
    </g>
   </g>
   <g id="line2d_29">
    <path d="M 72.404424 41.499069 
L 84.965463 63.061629 
L 97.526502 70.883897 
L 110.087541 87.715671 
L 122.64858 92.371738 
L 135.209619 101.931978 
L 147.770657 109.001928 
L 160.331696 117.649874 
L 172.892735 136.361824 
L 185.453774 149.867899 
L 198.014813 152.324705 
L 210.575852 162.789548 
L 223.136891 178.283911 
L 235.69793 190.423694 
L 248.258969 195.143476 
L 260.820008 202.414102 
L 273.381047 214.242293 
L 285.942086 219.975948 
L 298.503125 225.878618 
L 311.064164 229.06466 
L 323.625203 234.253218 
L 336.186242 240.214029 
L 348.747281 253.474987 
L 361.30832 254.610632 
L 373.869359 264.723317 
L 386.430398 272.033414 
" clip-path="url(#pbca93549e4)" style="fill: none; stroke: #1f77b4; stroke-linecap: square"/>
    <defs>
     <path id="m50c66ad861" d="M 0 1.5 
C 0.397805 1.5 0.77937 1.341951 1.06066 1.06066 
C 1.341951 0.77937 1.5 0.397805 1.5 0 
C 1.5 -0.397805 1.341951 -0.77937 1.06066 -1.06066 
C 0.77937 -1.341951 0.397805 -1.5 0 -1.5 
C -0.397805 -1.5 -0.77937 -1.341951 -1.06066 -1.06066 
C -1.341951 -0.77937 -1.5 -0.397805 -1.5 0 
C -1.5 0.397805 -1.341951 0.77937 -1.06066 1.06066 
C -0.77937 1.341951 -0.397805 1.5 0 1.5 
z
" style="stroke: #1f77b4"/>
    </defs>
    <g clip-path="url(#pbca93549e4)">
     <use xlink:href="#m50c66ad861" x="72.404424" y="41.499069" style="fill: #1f77b4; stroke: #1f77b4"/>
     <use xlink:href="#m50c66ad861" x="84.965463" y="63.061629" style="fill: #1f77b4; stroke: #1f77b4"/>
     <use xlink:href="#m50c66ad861" x="97.526502" y="70.883897" style="fill: #1f77b4; stroke: #1f77b4"/>
     <use xlink:href="#m50c66ad861" x="110.087541" y="87.715671" style="fill: #1f77b4; stroke: #1f77b4"/>
     <use xlink:href="#m50c66ad861" x="122.64858" y="92.371738" style="fill: #1f77b4; stroke: #1f77b4"/>
     <use xlink:href="#m50c66ad861" x="135.209619" y="101.931978" style="fill: #1f77b4; stroke: #1f77b4"/>
     <use xlink:href="#m50c66ad861" x="147.770657" y="109.001928" style="fill: #1f77b4; stroke: #1f77b4"/>
     <use xlink:href="#m50c66ad861" x="160.331696" y="117.649874" style="fill: #1f77b4; stroke: #1f77b4"/>
     <use xlink:href="#m50c66ad861" x="172.892735" y="136.361824" style="fill: #1f77b4; stroke: #1f77b4"/>
     <use xlink:href="#m50c66ad861" x="185.453774" y="149.867899" style="fill: #1f77b4; stroke: #1f77b4"/>
     <use xlink:href="#m50c66ad861" x="198.014813" y="152.324705" style="fill: #1f77b4; stroke: #1f77b4"/>
     <use xlink:href="#m50c66ad861" x="210.575852" y="162.789548" style="fill: #1f77b4; stroke: #1f77b4"/>
     <use xlink:href="#m50c66ad861" x="223.136891" y="178.283911" style="fill: #1f77b4; stroke: #1f77b4"/>
     <use xlink:href="#m50c66ad861" x="235.69793" y="190.423694" style="fill: #1f77b4; stroke: #1f77b4"/>
     <use xlink:href="#m50c66ad861" x="248.258969" y="195.143476" style="fill: #1f77b4; stroke: #1f77b4"/>
     <use xlink:href="#m50c66ad861" x="260.820008" y="202.414102" style="fill: #1f77b4; stroke: #1f77b4"/>
     <use xlink:href="#m50c66ad861" x="273.381047" y="214.242293" style="fill: #1f77b4; stroke: #1f77b4"/>
     <use xlink:href="#m50c66ad861" x="285.942086" y="219.975948" style="fill: #1f77b4; stroke: #1f77b4"/>
     <use xlink:href="#m50c66ad861" x="298.503125" y="225.878618" style="fill: #1f77b4; stroke: #1f77b4"/>
     <use xlink:href="#m50c66ad861" x="311.064164" y="229.06466" style="fill: #1f77b4; stroke: #1f77b4"/>
     <use xlink:href="#m50c66ad861" x="323.625203" y="234.253218" style="fill: #1f77b4; stroke: #1f77b4"/>
     <use xlink:href="#m50c66ad861" x="336.186242" y="240.214029" style="fill: #1f77b4; stroke: #1f77b4"/>
     <use xlink:href="#m50c66ad861" x="348.747281" y="253.474987" style="fill: #1f77b4; stroke: #1f77b4"/>
     <use xlink:href="#m50c66ad861" x="361.30832" y="254.610632" style="fill: #1f77b4; stroke: #1f77b4"/>
     <use xlink:href="#m50c66ad861" x="373.869359" y="264.723317" style="fill: #1f77b4; stroke: #1f77b4"/>
     <use xlink:href="#m50c66ad861" x="386.430398" y="272.033414" style="fill: #1f77b4; stroke: #1f77b4"/>
    </g>
   </g>
   <g id="line2d_30">
    <path d="M 72.404424 42.92293 
L 84.965463 64.93513 
L 97.526502 73.243121 
L 110.087541 90.358647 
L 122.64858 94.697464 
L 135.209619 105.491631 
L 147.770657 111.600656 
L 160.331696 119.64047 
L 172.892735 137.383734 
L 185.453774 149.840348 
L 198.014813 151.521776 
L 210.575852 158.652233 
L 223.136891 173.979921 
L 235.69793 185.320867 
L 248.258969 190.291588 
L 260.820008 195.505566 
L 273.381047 208.164838 
L 285.942086 212.638067 
L 298.503125 218.972805 
L 311.064164 223.039649 
L 323.625203 226.904929 
L 336.186242 233.88078 
L 348.747281 245.70195 
L 361.30832 247.194689 
L 373.869359 256.483735 
L 386.430398 263.396572 
" clip-path="url(#pbca93549e4)" style="fill: none; stroke: #ff7f0e; stroke-linecap: square"/>
    <defs>
     <path id="m0a86e909e9" d="M 0 1.5 
C 0.397805 1.5 0.77937 1.341951 1.06066 1.06066 
C 1.341951 0.77937 1.5 0.397805 1.5 0 
C 1.5 -0.397805 1.341951 -0.77937 1.06066 -1.06066 
C 0.77937 -1.341951 0.397805 -1.5 0 -1.5 
C -0.397805 -1.5 -0.77937 -1.341951 -1.06066 -1.06066 
C -1.341951 -0.77937 -1.5 -0.397805 -1.5 0 
C -1.5 0.397805 -1.341951 0.77937 -1.06066 1.06066 
C -0.77937 1.341951 -0.397805 1.5 0 1.5 
z
" style="stroke: #ff7f0e"/>
    </defs>
    <g clip-path="url(#pbca93549e4)">
     <use xlink:href="#m0a86e909e9" x="72.404424" y="42.92293" style="fill: #ff7f0e; stroke: #ff7f0e"/>
     <use xlink:href="#m0a86e909e9" x="84.965463" y="64.93513" style="fill: #ff7f0e; stroke: #ff7f0e"/>
     <use xlink:href="#m0a86e909e9" x="97.526502" y="73.243121" style="fill: #ff7f0e; stroke: #ff7f0e"/>
     <use xlink:href="#m0a86e909e9" x="110.087541" y="90.358647" style="fill: #ff7f0e; stroke: #ff7f0e"/>
     <use xlink:href="#m0a86e909e9" x="122.64858" y="94.697464" style="fill: #ff7f0e; stroke: #ff7f0e"/>
     <use xlink:href="#m0a86e909e9" x="135.209619" y="105.491631" style="fill: #ff7f0e; stroke: #ff7f0e"/>
     <use xlink:href="#m0a86e909e9" x="147.770657" y="111.600656" style="fill: #ff7f0e; stroke: #ff7f0e"/>
     <use xlink:href="#m0a86e909e9" x="160.331696" y="119.64047" style="fill: #ff7f0e; stroke: #ff7f0e"/>
     <use xlink:href="#m0a86e909e9" x="172.892735" y="137.383734" style="fill: #ff7f0e; stroke: #ff7f0e"/>
     <use xlink:href="#m0a86e909e9" x="185.453774" y="149.840348" style="fill: #ff7f0e; stroke: #ff7f0e"/>
     <use xlink:href="#m0a86e909e9" x="198.014813" y="151.521776" style="fill: #ff7f0e; stroke: #ff7f0e"/>
     <use xlink:href="#m0a86e909e9" x="210.575852" y="158.652233" style="fill: #ff7f0e; stroke: #ff7f0e"/>
     <use xlink:href="#m0a86e909e9" x="223.136891" y="173.979921" style="fill: #ff7f0e; stroke: #ff7f0e"/>
     <use xlink:href="#m0a86e909e9" x="235.69793" y="185.320867" style="fill: #ff7f0e; stroke: #ff7f0e"/>
     <use xlink:href="#m0a86e909e9" x="248.258969" y="190.291588" style="fill: #ff7f0e; stroke: #ff7f0e"/>
     <use xlink:href="#m0a86e909e9" x="260.820008" y="195.505566" style="fill: #ff7f0e; stroke: #ff7f0e"/>
     <use xlink:href="#m0a86e909e9" x="273.381047" y="208.164838" style="fill: #ff7f0e; stroke: #ff7f0e"/>
     <use xlink:href="#m0a86e909e9" x="285.942086" y="212.638067" style="fill: #ff7f0e; stroke: #ff7f0e"/>
     <use xlink:href="#m0a86e909e9" x="298.503125" y="218.972805" style="fill: #ff7f0e; stroke: #ff7f0e"/>
     <use xlink:href="#m0a86e909e9" x="311.064164" y="223.039649" style="fill: #ff7f0e; stroke: #ff7f0e"/>
     <use xlink:href="#m0a86e909e9" x="323.625203" y="226.904929" style="fill: #ff7f0e; stroke: #ff7f0e"/>
     <use xlink:href="#m0a86e909e9" x="336.186242" y="233.88078" style="fill: #ff7f0e; stroke: #ff7f0e"/>
     <use xlink:href="#m0a86e909e9" x="348.747281" y="245.70195" style="fill: #ff7f0e; stroke: #ff7f0e"/>
     <use xlink:href="#m0a86e909e9" x="361.30832" y="247.194689" style="fill: #ff7f0e; stroke: #ff7f0e"/>
     <use xlink:href="#m0a86e909e9" x="373.869359" y="256.483735" style="fill: #ff7f0e; stroke: #ff7f0e"/>
     <use xlink:href="#m0a86e909e9" x="386.430398" y="263.396572" style="fill: #ff7f0e; stroke: #ff7f0e"/>
    </g>
   </g>
   <g id="line2d_31">
    <path d="M 72.404424 40.712198 
L 84.965463 60.359463 
L 97.526502 69.496118 
L 110.087541 88.685878 
L 122.64858 94.826671 
L 135.209619 106.334707 
L 147.770657 113.202197 
L 160.331696 121.865252 
L 172.892735 142.067487 
L 185.453774 156.53536 
L 198.014813 160.166646 
L 210.575852 169.633032 
L 223.136891 187.195701 
L 235.69793 202.946571 
L 248.258969 208.474159 
L 260.820008 215.598868 
L 273.381047 228.887591 
L 285.942086 234.250244 
L 298.503125 240.583425 
L 311.064164 243.839773 
L 323.625203 248.533461 
L 336.186242 255.10022 
L 348.747281 268.004589 
L 361.30832 268.31061 
L 373.869359 278.717226 
L 386.430398 286.234554 
" clip-path="url(#pbca93549e4)" style="fill: none; stroke: #2ca02c; stroke-linecap: square"/>
    <defs>
     <path id="m8642ab1590" d="M 0 1.5 
C 0.397805 1.5 0.77937 1.341951 1.06066 1.06066 
C 1.341951 0.77937 1.5 0.397805 1.5 0 
C 1.5 -0.397805 1.341951 -0.77937 1.06066 -1.06066 
C 0.77937 -1.341951 0.397805 -1.5 0 -1.5 
C -0.397805 -1.5 -0.77937 -1.341951 -1.06066 -1.06066 
C -1.341951 -0.77937 -1.5 -0.397805 -1.5 0 
C -1.5 0.397805 -1.341951 0.77937 -1.06066 1.06066 
C -0.77937 1.341951 -0.397805 1.5 0 1.5 
z
" style="stroke: #2ca02c"/>
    </defs>
    <g clip-path="url(#pbca93549e4)">
     <use xlink:href="#m8642ab1590" x="72.404424" y="40.712198" style="fill: #2ca02c; stroke: #2ca02c"/>
     <use xlink:href="#m8642ab1590" x="84.965463" y="60.359463" style="fill: #2ca02c; stroke: #2ca02c"/>
     <use xlink:href="#m8642ab1590" x="97.526502" y="69.496118" style="fill: #2ca02c; stroke: #2ca02c"/>
     <use xlink:href="#m8642ab1590" x="110.087541" y="88.685878" style="fill: #2ca02c; stroke: #2ca02c"/>
     <use xlink:href="#m8642ab1590" x="122.64858" y="94.826671" style="fill: #2ca02c; stroke: #2ca02c"/>
     <use xlink:href="#m8642ab1590" x="135.209619" y="106.334707" style="fill: #2ca02c; stroke: #2ca02c"/>
     <use xlink:href="#m8642ab1590" x="147.770657" y="113.202197" style="fill: #2ca02c; stroke: #2ca02c"/>
     <use xlink:href="#m8642ab1590" x="160.331696" y="121.865252" style="fill: #2ca02c; stroke: #2ca02c"/>
     <use xlink:href="#m8642ab1590" x="172.892735" y="142.067487" style="fill: #2ca02c; stroke: #2ca02c"/>
     <use xlink:href="#m8642ab1590" x="185.453774" y="156.53536" style="fill: #2ca02c; stroke: #2ca02c"/>
     <use xlink:href="#m8642ab1590" x="198.014813" y="160.166646" style="fill: #2ca02c; stroke: #2ca02c"/>
     <use xlink:href="#m8642ab1590" x="210.575852" y="169.633032" style="fill: #2ca02c; stroke: #2ca02c"/>
     <use xlink:href="#m8642ab1590" x="223.136891" y="187.195701" style="fill: #2ca02c; stroke: #2ca02c"/>
     <use xlink:href="#m8642ab1590" x="235.69793" y="202.946571" style="fill: #2ca02c; stroke: #2ca02c"/>
     <use xlink:href="#m8642ab1590" x="248.258969" y="208.474159" style="fill: #2ca02c; stroke: #2ca02c"/>
     <use xlink:href="#m8642ab1590" x="260.820008" y="215.598868" style="fill: #2ca02c; stroke: #2ca02c"/>
     <use xlink:href="#m8642ab1590" x="273.381047" y="228.887591" style="fill: #2ca02c; stroke: #2ca02c"/>
     <use xlink:href="#m8642ab1590" x="285.942086" y="234.250244" style="fill: #2ca02c; stroke: #2ca02c"/>
     <use xlink:href="#m8642ab1590" x="298.503125" y="240.583425" style="fill: #2ca02c; stroke: #2ca02c"/>
     <use xlink:href="#m8642ab1590" x="311.064164" y="243.839773" style="fill: #2ca02c; stroke: #2ca02c"/>
     <use xlink:href="#m8642ab1590" x="323.625203" y="248.533461" style="fill: #2ca02c; stroke: #2ca02c"/>
     <use xlink:href="#m8642ab1590" x="336.186242" y="255.10022" style="fill: #2ca02c; stroke: #2ca02c"/>
     <use xlink:href="#m8642ab1590" x="348.747281" y="268.004589" style="fill: #2ca02c; stroke: #2ca02c"/>
     <use xlink:href="#m8642ab1590" x="361.30832" y="268.31061" style="fill: #2ca02c; stroke: #2ca02c"/>
     <use xlink:href="#m8642ab1590" x="373.869359" y="278.717226" style="fill: #2ca02c; stroke: #2ca02c"/>
     <use xlink:href="#m8642ab1590" x="386.430398" y="286.234554" style="fill: #2ca02c; stroke: #2ca02c"/>
    </g>
   </g>
   <g id="patch_3">
    <path d="M 56.703125 301.34175 
L 56.703125 24.14175 
" style="fill: none; stroke: #000000; stroke-width: 0.8; stroke-linejoin: miter; stroke-linecap: square"/>
   </g>
   <g id="patch_4">
    <path d="M 402.131696 301.34175 
L 402.131696 24.14175 
" style="fill: none; stroke: #000000; stroke-width: 0.8; stroke-linejoin: miter; stroke-linecap: square"/>
   </g>
   <g id="patch_5">
    <path d="M 56.703125 301.34175 
L 402.131696 301.34175 
" style="fill: none; stroke: #000000; stroke-width: 0.8; stroke-linejoin: miter; stroke-linecap: square"/>
   </g>
   <g id="patch_6">
    <path d="M 56.703125 24.14175 
L 402.131696 24.14175 
" style="fill: none; stroke: #000000; stroke-width: 0.8; stroke-linejoin: miter; stroke-linecap: square"/>
   </g>
   <g id="text_17">
    <!-- Top-1 Accuracy on CIFAR-100 (B50, 25 phases) -->
    <g transform="translate(56.549911 18.14175) scale(0.144 -0.144)">
     <defs>
      <path id="DejaVuSerif-6e" d="M 263 0 
L 263 331 
L 781 331 
L 781 2988 
L 231 2988 
L 231 3322 
L 1356 3322 
L 1356 2731 
Q 1516 3069 1770 3241 
Q 2025 3413 2363 3413 
Q 2913 3413 3172 3097 
Q 3431 2781 3431 2113 
L 3431 331 
L 3944 331 
L 3944 0 
L 2356 0 
L 2356 331 
L 2853 331 
L 2853 1931 
Q 2853 2541 2703 2767 
Q 2553 2994 2175 2994 
Q 1775 2994 1565 2701 
Q 1356 2409 1356 1850 
L 1356 331 
L 1856 331 
L 1856 0 
L 263 0 
z
" transform="scale(0.015625)"/>
      <path id="DejaVuSerif-43" d="M 4513 1234 
Q 4306 581 3820 245 
Q 3334 -91 2591 -91 
Q 2134 -91 1743 65 
Q 1353 222 1050 525 
Q 700 875 529 1320 
Q 359 1766 359 2328 
Q 359 3416 987 4083 
Q 1616 4750 2644 4750 
Q 3025 4750 3456 4650 
Q 3888 4550 4384 4347 
L 4384 3272 
L 4031 3272 
Q 3916 3859 3567 4137 
Q 3219 4416 2591 4416 
Q 1844 4416 1459 3886 
Q 1075 3356 1075 2328 
Q 1075 1303 1459 773 
Q 1844 244 2591 244 
Q 3113 244 3450 492 
Q 3788 741 3938 1234 
L 4513 1234 
z
" transform="scale(0.015625)"/>
      <path id="DejaVuSerif-49" d="M 1581 331 
L 2175 331 
L 2175 0 
L 353 0 
L 353 331 
L 947 331 
L 947 4331 
L 353 4331 
L 353 4666 
L 2175 4666 
L 2175 4331 
L 1581 4331 
L 1581 331 
z
" transform="scale(0.015625)"/>
      <path id="DejaVuSerif-46" d="M 353 0 
L 353 331 
L 947 331 
L 947 4331 
L 353 4331 
L 353 4666 
L 4172 4666 
L 4172 3628 
L 3788 3628 
L 3788 4281 
L 1581 4281 
L 1581 2719 
L 3175 2719 
L 3175 3303 
L 3559 3303 
L 3559 1753 
L 3175 1753 
L 3175 2338 
L 1581 2338 
L 1581 331 
L 2328 331 
L 2328 0 
L 353 0 
z
" transform="scale(0.015625)"/>
      <path id="DejaVuSerif-52" d="M 3066 2316 
Q 3284 2256 3442 2114 
Q 3600 1972 3725 1716 
L 4403 331 
L 4972 331 
L 4972 0 
L 3872 0 
L 3144 1484 
Q 2934 1916 2759 2042 
Q 2584 2169 2278 2169 
L 1581 2169 
L 1581 331 
L 2241 331 
L 2241 0 
L 353 0 
L 353 331 
L 947 331 
L 947 4331 
L 353 4331 
L 353 4666 
L 2719 4666 
Q 3400 4666 3770 4341 
Q 4141 4016 4141 3419 
Q 4141 2938 3870 2661 
Q 3600 2384 3066 2316 
z
M 1581 2503 
L 2503 2503 
Q 2975 2503 3200 2726 
Q 3425 2950 3425 3419 
Q 3425 3888 3200 4109 
Q 2975 4331 2503 4331 
L 1581 4331 
L 1581 2503 
z
" transform="scale(0.015625)"/>
      <path id="DejaVuSerif-42" d="M 1581 331 
L 2516 331 
Q 3078 331 3337 575 
Q 3597 819 3597 1350 
Q 3597 1878 3339 2120 
Q 3081 2363 2516 2363 
L 1581 2363 
L 1581 331 
z
M 1581 2694 
L 2375 2694 
Q 2888 2694 3123 2891 
Q 3359 3088 3359 3513 
Q 3359 3941 3123 4136 
Q 2888 4331 2375 4331 
L 1581 4331 
L 1581 2694 
z
M 353 0 
L 353 331 
L 947 331 
L 947 4331 
L 353 4331 
L 353 4666 
L 2656 4666 
Q 3363 4666 3720 4377 
Q 4078 4088 4078 3513 
Q 4078 3097 3829 2850 
Q 3581 2603 3103 2547 
Q 3697 2472 4005 2167 
Q 4313 1863 4313 1350 
Q 4313 656 3875 328 
Q 3438 0 2509 0 
L 353 0 
z
" transform="scale(0.015625)"/>
      <path id="DejaVuSerif-2c" d="M 231 -622 
Q 525 -406 662 -114 
Q 800 178 800 594 
L 800 709 
L 1416 709 
Q 1391 175 1164 -208 
Q 938 -591 481 -872 
L 231 -622 
z
" transform="scale(0.015625)"/>
     </defs>
     <use xlink:href="#DejaVuSerif-54"/>
     <use xlink:href="#DejaVuSerif-6f" x="58.949219"/>
     <use xlink:href="#DejaVuSerif-70" x="119.154297"/>
     <use xlink:href="#DejaVuSerif-2d" x="183.167969"/>
     <use xlink:href="#DejaVuSerif-31" x="216.957031"/>
     <use xlink:href="#DejaVuSerif-20" x="280.580078"/>
     <use xlink:href="#DejaVuSerif-41" x="312.367188"/>
     <use xlink:href="#DejaVuSerif-63" x="384.583984"/>
     <use xlink:href="#DejaVuSerif-63" x="440.589844"/>
     <use xlink:href="#DejaVuSerif-75" x="496.595703"/>
     <use xlink:href="#DejaVuSerif-72" x="561"/>
     <use xlink:href="#DejaVuSerif-61" x="608.802734"/>
     <use xlink:href="#DejaVuSerif-63" x="668.421875"/>
     <use xlink:href="#DejaVuSerif-79" x="724.427734"/>
     <use xlink:href="#DejaVuSerif-20" x="780.921875"/>
     <use xlink:href="#DejaVuSerif-6f" x="812.708984"/>
     <use xlink:href="#DejaVuSerif-6e" x="872.914062"/>
     <use xlink:href="#DejaVuSerif-20" x="937.318359"/>
     <use xlink:href="#DejaVuSerif-43" x="969.105469"/>
     <use xlink:href="#DejaVuSerif-49" x="1045.619141"/>
     <use xlink:href="#DejaVuSerif-46" x="1085.121094"/>
     <use xlink:href="#DejaVuSerif-41" x="1145.755859"/>
     <use xlink:href="#DejaVuSerif-52" x="1217.972656"/>
     <use xlink:href="#DejaVuSerif-2d" x="1293.265625"/>
     <use xlink:href="#DejaVuSerif-31" x="1327.054688"/>
     <use xlink:href="#DejaVuSerif-30" x="1390.677734"/>
     <use xlink:href="#DejaVuSerif-30" x="1454.300781"/>
     <use xlink:href="#DejaVuSerif-20" x="1517.923828"/>
     <use xlink:href="#DejaVuSerif-28" x="1549.710938"/>
     <use xlink:href="#DejaVuSerif-42" x="1588.724609"/>
     <use xlink:href="#DejaVuSerif-35" x="1662.210938"/>
     <use xlink:href="#DejaVuSerif-30" x="1725.833984"/>
     <use xlink:href="#DejaVuSerif-2c" x="1789.457031"/>
     <use xlink:href="#DejaVuSerif-20" x="1821.244141"/>
     <use xlink:href="#DejaVuSerif-32" x="1853.03125"/>
     <use xlink:href="#DejaVuSerif-35" x="1916.654297"/>
     <use xlink:href="#DejaVuSerif-20" x="1980.277344"/>
     <use xlink:href="#DejaVuSerif-70" x="2012.064453"/>
     <use xlink:href="#DejaVuSerif-68" x="2076.078125"/>
     <use xlink:href="#DejaVuSerif-61" x="2140.482422"/>
     <use xlink:href="#DejaVuSerif-73" x="2200.101562"/>
     <use xlink:href="#DejaVuSerif-65" x="2251.419922"/>
     <use xlink:href="#DejaVuSerif-73" x="2310.599609"/>
     <use xlink:href="#DejaVuSerif-29" x="2361.917969"/>
    </g>
   </g>
   <g id="legend_1">
    <g id="patch_7">
     <path d="M 311.385446 86.583 
L 393.731696 86.583 
Q 396.131696 86.583 396.131696 84.183 
L 396.131696 32.54175 
Q 396.131696 30.14175 393.731696 30.14175 
L 311.385446 30.14175 
Q 308.985446 30.14175 308.985446 32.54175 
L 308.985446 84.183 
Q 308.985446 86.583 311.385446 86.583 
z
" style="fill: #ffffff; opacity: 0.8; stroke: #cccccc; stroke-linejoin: miter"/>
    </g>
    <g id="line2d_32">
     <path d="M 313.785446 39.859875 
L 325.785446 39.859875 
L 337.785446 39.859875 
" style="fill: none; stroke: #1f77b4; stroke-linecap: square"/>
     <g>
      <use xlink:href="#m50c66ad861" x="325.785446" y="39.859875" style="fill: #1f77b4; stroke: #1f77b4"/>
     </g>
    </g>
    <g id="text_18">
     <!-- ACIL -->
     <g transform="translate(347.385446 44.059875) scale(0.12 -0.12)">
      <defs>
       <path id="DejaVuSerif-4c" d="M 353 0 
L 353 331 
L 947 331 
L 947 4331 
L 353 4331 
L 353 4666 
L 2175 4666 
L 2175 4331 
L 1581 4331 
L 1581 384 
L 3713 384 
L 3713 1166 
L 4097 1166 
L 4097 0 
L 353 0 
z
" transform="scale(0.015625)"/>
      </defs>
      <use xlink:href="#DejaVuSerif-41"/>
      <use xlink:href="#DejaVuSerif-43" x="72.216797"/>
      <use xlink:href="#DejaVuSerif-49" x="148.730469"/>
      <use xlink:href="#DejaVuSerif-4c" x="188.232422"/>
     </g>
    </g>
    <g id="line2d_33">
     <path d="M 313.785446 57.473625 
L 325.785446 57.473625 
L 337.785446 57.473625 
" style="fill: none; stroke: #ff7f0e; stroke-linecap: square"/>
     <g>
      <use xlink:href="#m0a86e909e9" x="325.785446" y="57.473625" style="fill: #ff7f0e; stroke: #ff7f0e"/>
     </g>
    </g>
    <g id="text_19">
     <!-- DS-AL -->
     <g transform="translate(347.385446 61.673625) scale(0.12 -0.12)">
      <defs>
       <path id="DejaVuSerif-44" d="M 1581 331 
L 2163 331 
Q 3072 331 3558 850 
Q 4044 1369 4044 2338 
Q 4044 3306 3559 3818 
Q 3075 4331 2163 4331 
L 1581 4331 
L 1581 331 
z
M 353 0 
L 353 331 
L 947 331 
L 947 4331 
L 353 4331 
L 353 4666 
L 2209 4666 
Q 3416 4666 4089 4050 
Q 4763 3434 4763 2338 
Q 4763 1238 4088 619 
Q 3413 0 2209 0 
L 353 0 
z
" transform="scale(0.015625)"/>
       <path id="DejaVuSerif-53" d="M 594 225 
L 594 1288 
L 953 1284 
Q 969 753 1261 498 
Q 1553 244 2150 244 
Q 2706 244 2998 464 
Q 3291 684 3291 1106 
Q 3291 1444 3114 1625 
Q 2938 1806 2369 1978 
L 1753 2163 
Q 1084 2366 811 2669 
Q 538 2972 538 3500 
Q 538 4094 959 4422 
Q 1381 4750 2144 4750 
Q 2469 4750 2856 4679 
Q 3244 4609 3681 4475 
L 3681 3481 
L 3328 3481 
Q 3275 3975 2998 4195 
Q 2722 4416 2156 4416 
Q 1663 4416 1405 4214 
Q 1147 4013 1147 3628 
Q 1147 3294 1340 3103 
Q 1534 2913 2163 2725 
L 2741 2553 
Q 3375 2363 3645 2067 
Q 3916 1772 3916 1275 
Q 3916 597 3481 253 
Q 3047 -91 2188 -91 
Q 1803 -91 1404 -12 
Q 1006 66 594 225 
z
" transform="scale(0.015625)"/>
      </defs>
      <use xlink:href="#DejaVuSerif-44"/>
      <use xlink:href="#DejaVuSerif-53" x="80.175781"/>
      <use xlink:href="#DejaVuSerif-2d" x="152.306641"/>
      <use xlink:href="#DejaVuSerif-41" x="186.095703"/>
      <use xlink:href="#DejaVuSerif-4c" x="258.3125"/>
     </g>
    </g>
    <g id="line2d_34">
     <path d="M 313.785446 75.087375 
L 325.785446 75.087375 
L 337.785446 75.087375 
" style="fill: none; stroke: #2ca02c; stroke-linecap: square"/>
     <g>
      <use xlink:href="#m8642ab1590" x="325.785446" y="75.087375" style="fill: #2ca02c; stroke: #2ca02c"/>
     </g>
    </g>
    <g id="text_20">
     <!-- GKEAL -->
     <g transform="translate(347.385446 79.287375) scale(0.12 -0.12)">
      <defs>
       <path id="DejaVuSerif-47" d="M 4097 3272 
Q 3988 3856 3641 4136 
Q 3294 4416 2675 4416 
Q 1869 4416 1472 3897 
Q 1075 3378 1075 2328 
Q 1075 1300 1484 772 
Q 1894 244 2688 244 
Q 3041 244 3362 331 
Q 3684 419 3975 594 
L 3975 1797 
L 3097 1797 
L 3097 2131 
L 4609 2131 
L 4609 391 
Q 4194 150 3714 29 
Q 3234 -91 2688 -91 
Q 1631 -91 995 570 
Q 359 1231 359 2328 
Q 359 3434 996 4092 
Q 1634 4750 2713 4750 
Q 3113 4750 3539 4658 
Q 3966 4566 4447 4378 
L 4447 3272 
L 4097 3272 
z
" transform="scale(0.015625)"/>
       <path id="DejaVuSerif-4b" d="M 353 0 
L 353 331 
L 947 331 
L 947 4331 
L 353 4331 
L 353 4666 
L 2175 4666 
L 2175 4331 
L 1581 4331 
L 1581 2566 
L 3591 4331 
L 3084 4331 
L 3084 4666 
L 4634 4666 
L 4634 4331 
L 4109 4331 
L 2106 2572 
L 4347 331 
L 4878 331 
L 4878 0 
L 3794 0 
L 1581 2216 
L 1581 331 
L 2175 331 
L 2175 0 
L 353 0 
z
" transform="scale(0.015625)"/>
       <path id="DejaVuSerif-45" d="M 353 0 
L 353 331 
L 947 331 
L 947 4331 
L 353 4331 
L 353 4666 
L 4109 4666 
L 4109 3628 
L 3725 3628 
L 3725 4281 
L 1581 4281 
L 1581 2719 
L 3109 2719 
L 3109 3303 
L 3494 3303 
L 3494 1753 
L 3109 1753 
L 3109 2338 
L 1581 2338 
L 1581 384 
L 3775 384 
L 3775 1038 
L 4159 1038 
L 4159 0 
L 353 0 
z
" transform="scale(0.015625)"/>
      </defs>
      <use xlink:href="#DejaVuSerif-47"/>
      <use xlink:href="#DejaVuSerif-4b" x="79.882812"/>
      <use xlink:href="#DejaVuSerif-45" x="154.589844"/>
      <use xlink:href="#DejaVuSerif-41" x="227.587891"/>
      <use xlink:href="#DejaVuSerif-4c" x="299.804688"/>
     </g>
    </g>
   </g>
  </g>
  <g id="axes_2">
   <g id="patch_8">
    <path d="M 436.674554 301.34175 
L 782.103125 301.34175 
L 782.103125 24.14175 
L 436.674554 24.14175 
z
" style="fill: #ffffff"/>
   </g>
   <g id="PolyCollection_4">
    <path d="M 452.375852 41.365071 
L 452.375852 43.799864 
L 464.936891 57.660922 
L 477.49793 69.414386 
L 490.058969 82.065664 
L 502.620008 90.508793 
L 515.181047 103.788696 
L 527.742086 115.410371 
L 540.303125 129.577542 
L 552.864164 140.797668 
L 565.425203 152.264763 
L 577.986242 162.827762 
L 590.547281 173.780275 
L 603.10832 182.805137 
L 615.669359 193.813946 
L 628.230398 203.653096 
L 640.791437 212.436809 
L 653.352476 220.987736 
L 665.913515 231.358555 
L 678.474554 240.73691 
L 691.035593 249.464279 
L 703.596631 257.666945 
L 716.15767 264.281117 
L 728.718709 266.877044 
L 741.279748 268.881027 
L 753.840787 275.677919 
L 766.401826 277.513864 
L 766.401826 275.136627 
L 766.401826 275.136627 
L 753.840787 273.782492 
L 741.279748 267.292086 
L 728.718709 264.996929 
L 716.15767 262.043766 
L 703.596631 255.303237 
L 691.035593 247.045659 
L 678.474554 238.240066 
L 665.913515 229.361033 
L 653.352476 218.581571 
L 640.791437 210.153728 
L 628.230398 200.877467 
L 615.669359 191.011043 
L 603.10832 180.081856 
L 590.547281 170.629692 
L 577.986242 160.417671 
L 565.425203 149.662947 
L 552.864164 137.838925 
L 540.303125 126.654593 
L 527.742086 112.918974 
L 515.181047 101.821092 
L 502.620008 88.229906 
L 490.058969 80.40063 
L 477.49793 67.761336 
L 464.936891 55.724549 
L 452.375852 41.365071 
z
" clip-path="url(#pe4c4be3b7e)" style="fill: #1f77b4; fill-opacity: 0.2"/>
   </g>
   <g id="PolyCollection_5">
    <path d="M 452.375852 36.74175 
L 452.375852 40.071021 
L 464.936891 55.844445 
L 477.49793 68.35489 
L 490.058969 80.566829 
L 502.620008 88.587571 
L 515.181047 100.282434 
L 527.742086 110.821565 
L 540.303125 123.148785 
L 552.864164 134.242403 
L 565.425203 146.483117 
L 577.986242 155.558184 
L 590.547281 164.778485 
L 603.10832 173.458463 
L 615.669359 183.223906 
L 628.230398 192.467562 
L 640.791437 200.433388 
L 653.352476 207.995604 
L 665.913515 218.206658 
L 678.474554 227.012772 
L 691.035593 235.428881 
L 703.596631 244.147131 
L 716.15767 250.429587 
L 728.718709 252.861138 
L 741.279748 254.101796 
L 753.840787 260.326015 
L 766.401826 262.1207 
L 766.401826 260.269262 
L 766.401826 260.269262 
L 753.840787 258.897322 
L 741.279748 252.825361 
L 728.718709 251.005217 
L 716.15767 248.714297 
L 703.596631 242.005706 
L 691.035593 233.46765 
L 678.474554 224.131961 
L 665.913515 215.420241 
L 653.352476 205.831211 
L 640.791437 197.796673 
L 628.230398 190.098075 
L 615.669359 180.514032 
L 603.10832 171.263685 
L 590.547281 161.99319 
L 577.986242 152.991929 
L 565.425203 143.067519 
L 552.864164 131.35002 
L 540.303125 120.568491 
L 527.742086 107.410114 
L 515.181047 97.665256 
L 502.620008 85.880275 
L 490.058969 78.368407 
L 477.49793 65.780317 
L 464.936891 52.928392 
L 452.375852 36.74175 
z
" clip-path="url(#pe4c4be3b7e)" style="fill: #ff7f0e; fill-opacity: 0.2"/>
   </g>
   <g id="PolyCollection_6">
    <path d="M 452.375852 40.766687 
L 452.375852 43.170408 
L 464.936891 57.210521 
L 477.49793 70.038777 
L 490.058969 83.80304 
L 502.620008 92.907919 
L 515.181047 107.080271 
L 527.742086 118.917145 
L 540.303125 133.565754 
L 552.864164 145.070082 
L 565.425203 157.860002 
L 577.986242 168.404052 
L 590.547281 180.218372 
L 603.10832 189.54398 
L 615.669359 200.588423 
L 628.230398 210.909171 
L 640.791437 220.272059 
L 653.352476 229.168871 
L 665.913515 240.024455 
L 678.474554 249.880176 
L 691.035593 259.061362 
L 703.596631 267.41977 
L 716.15767 274.464983 
L 728.718709 277.53916 
L 741.279748 280.378859 
L 753.840787 287.23127 
L 766.401826 288.74175 
L 766.401826 286.488135 
L 766.401826 286.488135 
L 753.840787 284.861419 
L 741.279748 277.975969 
L 728.718709 275.925283 
L 716.15767 273.291221 
L 703.596631 266.212695 
L 691.035593 257.582674 
L 678.474554 248.047294 
L 665.913515 239.102525 
L 653.352476 228.273055 
L 640.791437 219.593891 
L 628.230398 209.921197 
L 615.669359 199.039771 
L 603.10832 188.478776 
L 590.547281 178.270503 
L 577.986242 167.14017 
L 565.425203 155.122042 
L 552.864164 142.511395 
L 540.303125 130.262299 
L 527.742086 115.790885 
L 515.181047 103.966752 
L 502.620008 90.532411 
L 490.058969 81.901119 
L 477.49793 67.890465 
L 464.936891 55.81802 
L 452.375852 40.766687 
z
" clip-path="url(#pe4c4be3b7e)" style="fill: #2ca02c; fill-opacity: 0.2"/>
   </g>
   <g id="matplotlib.axis_3">
    <g id="xtick_7">
     <g id="line2d_35">
      <path d="M 452.375852 301.34175 
L 452.375852 24.14175 
" clip-path="url(#pe4c4be3b7e)" style="fill: none; stroke: #b0b0b0; stroke-width: 0.8; stroke-linecap: square"/>
     </g>
     <g id="line2d_36">
      <g>
       <use xlink:href="#m7ebd5a3c28" x="452.375852" y="301.34175" style="stroke: #000000; stroke-width: 0.8"/>
      </g>
     </g>
     <g id="text_21">
      <!-- 0 -->
      <g transform="translate(448.558352 317.459875) scale(0.12 -0.12)">
       <use xlink:href="#DejaVuSerif-30"/>
      </g>
     </g>
    </g>
    <g id="xtick_8">
     <g id="line2d_37">
      <path d="M 515.181047 301.34175 
L 515.181047 24.14175 
" clip-path="url(#pe4c4be3b7e)" style="fill: none; stroke: #b0b0b0; stroke-width: 0.8; stroke-linecap: square"/>
     </g>
     <g id="line2d_38">
      <g>
       <use xlink:href="#m7ebd5a3c28" x="515.181047" y="301.34175" style="stroke: #000000; stroke-width: 0.8"/>
      </g>
     </g>
     <g id="text_22">
      <!-- 5 -->
      <g transform="translate(511.363547 317.459875) scale(0.12 -0.12)">
       <use xlink:href="#DejaVuSerif-35"/>
      </g>
     </g>
    </g>
    <g id="xtick_9">
     <g id="line2d_39">
      <path d="M 577.986242 301.34175 
L 577.986242 24.14175 
" clip-path="url(#pe4c4be3b7e)" style="fill: none; stroke: #b0b0b0; stroke-width: 0.8; stroke-linecap: square"/>
     </g>
     <g id="line2d_40">
      <g>
       <use xlink:href="#m7ebd5a3c28" x="577.986242" y="301.34175" style="stroke: #000000; stroke-width: 0.8"/>
      </g>
     </g>
     <g id="text_23">
      <!-- 10 -->
      <g transform="translate(570.351242 317.459875) scale(0.12 -0.12)">
       <use xlink:href="#DejaVuSerif-31"/>
       <use xlink:href="#DejaVuSerif-30" x="63.623047"/>
      </g>
     </g>
    </g>
    <g id="xtick_10">
     <g id="line2d_41">
      <path d="M 640.791437 301.34175 
L 640.791437 24.14175 
" clip-path="url(#pe4c4be3b7e)" style="fill: none; stroke: #b0b0b0; stroke-width: 0.8; stroke-linecap: square"/>
     </g>
     <g id="line2d_42">
      <g>
       <use xlink:href="#m7ebd5a3c28" x="640.791437" y="301.34175" style="stroke: #000000; stroke-width: 0.8"/>
      </g>
     </g>
     <g id="text_24">
      <!-- 15 -->
      <g transform="translate(633.156437 317.459875) scale(0.12 -0.12)">
       <use xlink:href="#DejaVuSerif-31"/>
       <use xlink:href="#DejaVuSerif-35" x="63.623047"/>
      </g>
     </g>
    </g>
    <g id="xtick_11">
     <g id="line2d_43">
      <path d="M 703.596631 301.34175 
L 703.596631 24.14175 
" clip-path="url(#pe4c4be3b7e)" style="fill: none; stroke: #b0b0b0; stroke-width: 0.8; stroke-linecap: square"/>
     </g>
     <g id="line2d_44">
      <g>
       <use xlink:href="#m7ebd5a3c28" x="703.596631" y="301.34175" style="stroke: #000000; stroke-width: 0.8"/>
      </g>
     </g>
     <g id="text_25">
      <!-- 20 -->
      <g transform="translate(695.961631 317.459875) scale(0.12 -0.12)">
       <use xlink:href="#DejaVuSerif-32"/>
       <use xlink:href="#DejaVuSerif-30" x="63.623047"/>
      </g>
     </g>
    </g>
    <g id="xtick_12">
     <g id="line2d_45">
      <path d="M 766.401826 301.34175 
L 766.401826 24.14175 
" clip-path="url(#pe4c4be3b7e)" style="fill: none; stroke: #b0b0b0; stroke-width: 0.8; stroke-linecap: square"/>
     </g>
     <g id="line2d_46">
      <g>
       <use xlink:href="#m7ebd5a3c28" x="766.401826" y="301.34175" style="stroke: #000000; stroke-width: 0.8"/>
      </g>
     </g>
     <g id="text_26">
      <!-- 25 -->
      <g transform="translate(758.766826 317.459875) scale(0.12 -0.12)">
       <use xlink:href="#DejaVuSerif-32"/>
       <use xlink:href="#DejaVuSerif-35" x="63.623047"/>
      </g>
     </g>
    </g>
    <g id="text_27">
     <!-- Phase -->
     <g transform="translate(591.280089 333.073625) scale(0.12 -0.12)">
      <use xlink:href="#DejaVuSerif-50"/>
      <use xlink:href="#DejaVuSerif-68" x="67.285156"/>
      <use xlink:href="#DejaVuSerif-61" x="131.689453"/>
      <use xlink:href="#DejaVuSerif-73" x="191.308594"/>
      <use xlink:href="#DejaVuSerif-65" x="242.626953"/>
     </g>
    </g>
   </g>
   <g id="matplotlib.axis_4">
    <g id="ytick_9">
     <g id="line2d_47">
      <path d="M 436.674554 258.6465 
L 782.103125 258.6465 
" clip-path="url(#pe4c4be3b7e)" style="fill: none; stroke: #b0b0b0; stroke-width: 0.8; stroke-linecap: square"/>
     </g>
     <g id="line2d_48">
      <g>
       <use xlink:href="#m0197557491" x="436.674554" y="258.6465" style="stroke: #000000; stroke-width: 0.8"/>
      </g>
     </g>
     <g id="text_28">
      <!-- 60 -->
      <g transform="translate(414.404554 263.205563) scale(0.12 -0.12)">
       <use xlink:href="#DejaVuSerif-36"/>
       <use xlink:href="#DejaVuSerif-30" x="63.623047"/>
      </g>
     </g>
    </g>
    <g id="ytick_10">
     <g id="line2d_49">
      <path d="M 436.674554 205.106994 
L 782.103125 205.106994 
" clip-path="url(#pe4c4be3b7e)" style="fill: none; stroke: #b0b0b0; stroke-width: 0.8; stroke-linecap: square"/>
     </g>
     <g id="line2d_50">
      <g>
       <use xlink:href="#m0197557491" x="436.674554" y="205.106994" style="stroke: #000000; stroke-width: 0.8"/>
      </g>
     </g>
     <g id="text_29">
      <!-- 65 -->
      <g transform="translate(414.404554 209.666056) scale(0.12 -0.12)">
       <use xlink:href="#DejaVuSerif-36"/>
       <use xlink:href="#DejaVuSerif-35" x="63.623047"/>
      </g>
     </g>
    </g>
    <g id="ytick_11">
     <g id="line2d_51">
      <path d="M 436.674554 151.567487 
L 782.103125 151.567487 
" clip-path="url(#pe4c4be3b7e)" style="fill: none; stroke: #b0b0b0; stroke-width: 0.8; stroke-linecap: square"/>
     </g>
     <g id="line2d_52">
      <g>
       <use xlink:href="#m0197557491" x="436.674554" y="151.567487" style="stroke: #000000; stroke-width: 0.8"/>
      </g>
     </g>
     <g id="text_30">
      <!-- 70 -->
      <g transform="translate(414.404554 156.126549) scale(0.12 -0.12)">
       <use xlink:href="#DejaVuSerif-37"/>
       <use xlink:href="#DejaVuSerif-30" x="63.623047"/>
      </g>
     </g>
    </g>
    <g id="ytick_12">
     <g id="line2d_53">
      <path d="M 436.674554 98.02798 
L 782.103125 98.02798 
" clip-path="url(#pe4c4be3b7e)" style="fill: none; stroke: #b0b0b0; stroke-width: 0.8; stroke-linecap: square"/>
     </g>
     <g id="line2d_54">
      <g>
       <use xlink:href="#m0197557491" x="436.674554" y="98.02798" style="stroke: #000000; stroke-width: 0.8"/>
      </g>
     </g>
     <g id="text_31">
      <!-- 75 -->
      <g transform="translate(414.404554 102.587043) scale(0.12 -0.12)">
       <use xlink:href="#DejaVuSerif-37"/>
       <use xlink:href="#DejaVuSerif-35" x="63.623047"/>
      </g>
     </g>
    </g>
    <g id="ytick_13">
     <g id="line2d_55">
      <path d="M 436.674554 44.488474 
L 782.103125 44.488474 
" clip-path="url(#pe4c4be3b7e)" style="fill: none; stroke: #b0b0b0; stroke-width: 0.8; stroke-linecap: square"/>
     </g>
     <g id="line2d_56">
      <g>
       <use xlink:href="#m0197557491" x="436.674554" y="44.488474" style="stroke: #000000; stroke-width: 0.8"/>
      </g>
     </g>
     <g id="text_32">
      <!-- 80 -->
      <g transform="translate(414.404554 49.047536) scale(0.12 -0.12)">
       <use xlink:href="#DejaVuSerif-38"/>
       <use xlink:href="#DejaVuSerif-30" x="63.623047"/>
      </g>
     </g>
    </g>
   </g>
   <g id="line2d_57">
    <path d="M 452.375852 42.582467 
L 464.936891 56.692736 
L 477.49793 68.587861 
L 490.058969 81.233147 
L 502.620008 89.36935 
L 515.181047 102.804894 
L 527.742086 114.164672 
L 540.303125 128.116068 
L 552.864164 139.318297 
L 565.425203 150.963855 
L 577.986242 161.622716 
L 590.547281 172.204984 
L 603.10832 181.443496 
L 615.669359 192.412495 
L 628.230398 202.265281 
L 640.791437 211.295268 
L 653.352476 219.784653 
L 665.913515 230.359794 
L 678.474554 239.488488 
L 691.035593 248.254969 
L 703.596631 256.485091 
L 716.15767 263.162441 
L 728.718709 265.936986 
L 741.279748 268.086556 
L 753.840787 274.730205 
L 766.401826 276.325245 
" clip-path="url(#pe4c4be3b7e)" style="fill: none; stroke: #1f77b4; stroke-linecap: square"/>
    <g clip-path="url(#pe4c4be3b7e)">
     <use xlink:href="#m50c66ad861" x="452.375852" y="42.582467" style="fill: #1f77b4; stroke: #1f77b4"/>
     <use xlink:href="#m50c66ad861" x="464.936891" y="56.692736" style="fill: #1f77b4; stroke: #1f77b4"/>
     <use xlink:href="#m50c66ad861" x="477.49793" y="68.587861" style="fill: #1f77b4; stroke: #1f77b4"/>
     <use xlink:href="#m50c66ad861" x="490.058969" y="81.233147" style="fill: #1f77b4; stroke: #1f77b4"/>
     <use xlink:href="#m50c66ad861" x="502.620008" y="89.36935" style="fill: #1f77b4; stroke: #1f77b4"/>
     <use xlink:href="#m50c66ad861" x="515.181047" y="102.804894" style="fill: #1f77b4; stroke: #1f77b4"/>
     <use xlink:href="#m50c66ad861" x="527.742086" y="114.164672" style="fill: #1f77b4; stroke: #1f77b4"/>
     <use xlink:href="#m50c66ad861" x="540.303125" y="128.116068" style="fill: #1f77b4; stroke: #1f77b4"/>
     <use xlink:href="#m50c66ad861" x="552.864164" y="139.318297" style="fill: #1f77b4; stroke: #1f77b4"/>
     <use xlink:href="#m50c66ad861" x="565.425203" y="150.963855" style="fill: #1f77b4; stroke: #1f77b4"/>
     <use xlink:href="#m50c66ad861" x="577.986242" y="161.622716" style="fill: #1f77b4; stroke: #1f77b4"/>
     <use xlink:href="#m50c66ad861" x="590.547281" y="172.204984" style="fill: #1f77b4; stroke: #1f77b4"/>
     <use xlink:href="#m50c66ad861" x="603.10832" y="181.443496" style="fill: #1f77b4; stroke: #1f77b4"/>
     <use xlink:href="#m50c66ad861" x="615.669359" y="192.412495" style="fill: #1f77b4; stroke: #1f77b4"/>
     <use xlink:href="#m50c66ad861" x="628.230398" y="202.265281" style="fill: #1f77b4; stroke: #1f77b4"/>
     <use xlink:href="#m50c66ad861" x="640.791437" y="211.295268" style="fill: #1f77b4; stroke: #1f77b4"/>
     <use xlink:href="#m50c66ad861" x="653.352476" y="219.784653" style="fill: #1f77b4; stroke: #1f77b4"/>
     <use xlink:href="#m50c66ad861" x="665.913515" y="230.359794" style="fill: #1f77b4; stroke: #1f77b4"/>
     <use xlink:href="#m50c66ad861" x="678.474554" y="239.488488" style="fill: #1f77b4; stroke: #1f77b4"/>
     <use xlink:href="#m50c66ad861" x="691.035593" y="248.254969" style="fill: #1f77b4; stroke: #1f77b4"/>
     <use xlink:href="#m50c66ad861" x="703.596631" y="256.485091" style="fill: #1f77b4; stroke: #1f77b4"/>
     <use xlink:href="#m50c66ad861" x="716.15767" y="263.162441" style="fill: #1f77b4; stroke: #1f77b4"/>
     <use xlink:href="#m50c66ad861" x="728.718709" y="265.936986" style="fill: #1f77b4; stroke: #1f77b4"/>
     <use xlink:href="#m50c66ad861" x="741.279748" y="268.086556" style="fill: #1f77b4; stroke: #1f77b4"/>
     <use xlink:href="#m50c66ad861" x="753.840787" y="274.730205" style="fill: #1f77b4; stroke: #1f77b4"/>
     <use xlink:href="#m50c66ad861" x="766.401826" y="276.325245" style="fill: #1f77b4; stroke: #1f77b4"/>
    </g>
   </g>
   <g id="line2d_58">
    <path d="M 452.375852 38.406386 
L 464.936891 54.386418 
L 477.49793 67.067604 
L 490.058969 79.467618 
L 502.620008 87.233923 
L 515.181047 98.973845 
L 527.742086 109.115839 
L 540.303125 121.858638 
L 552.864164 132.796211 
L 565.425203 144.775318 
L 577.986242 154.275056 
L 590.547281 163.385837 
L 603.10832 172.361074 
L 615.669359 181.868969 
L 628.230398 191.282818 
L 640.791437 199.11503 
L 653.352476 206.913408 
L 665.913515 216.813449 
L 678.474554 225.572366 
L 691.035593 234.448266 
L 703.596631 243.076419 
L 716.15767 249.571942 
L 728.718709 251.933178 
L 741.279748 253.463579 
L 753.840787 259.611668 
L 766.401826 261.194981 
" clip-path="url(#pe4c4be3b7e)" style="fill: none; stroke: #ff7f0e; stroke-linecap: square"/>
    <g clip-path="url(#pe4c4be3b7e)">
     <use xlink:href="#m0a86e909e9" x="452.375852" y="38.406386" style="fill: #ff7f0e; stroke: #ff7f0e"/>
     <use xlink:href="#m0a86e909e9" x="464.936891" y="54.386418" style="fill: #ff7f0e; stroke: #ff7f0e"/>
     <use xlink:href="#m0a86e909e9" x="477.49793" y="67.067604" style="fill: #ff7f0e; stroke: #ff7f0e"/>
     <use xlink:href="#m0a86e909e9" x="490.058969" y="79.467618" style="fill: #ff7f0e; stroke: #ff7f0e"/>
     <use xlink:href="#m0a86e909e9" x="502.620008" y="87.233923" style="fill: #ff7f0e; stroke: #ff7f0e"/>
     <use xlink:href="#m0a86e909e9" x="515.181047" y="98.973845" style="fill: #ff7f0e; stroke: #ff7f0e"/>
     <use xlink:href="#m0a86e909e9" x="527.742086" y="109.115839" style="fill: #ff7f0e; stroke: #ff7f0e"/>
     <use xlink:href="#m0a86e909e9" x="540.303125" y="121.858638" style="fill: #ff7f0e; stroke: #ff7f0e"/>
     <use xlink:href="#m0a86e909e9" x="552.864164" y="132.796211" style="fill: #ff7f0e; stroke: #ff7f0e"/>
     <use xlink:href="#m0a86e909e9" x="565.425203" y="144.775318" style="fill: #ff7f0e; stroke: #ff7f0e"/>
     <use xlink:href="#m0a86e909e9" x="577.986242" y="154.275056" style="fill: #ff7f0e; stroke: #ff7f0e"/>
     <use xlink:href="#m0a86e909e9" x="590.547281" y="163.385837" style="fill: #ff7f0e; stroke: #ff7f0e"/>
     <use xlink:href="#m0a86e909e9" x="603.10832" y="172.361074" style="fill: #ff7f0e; stroke: #ff7f0e"/>
     <use xlink:href="#m0a86e909e9" x="615.669359" y="181.868969" style="fill: #ff7f0e; stroke: #ff7f0e"/>
     <use xlink:href="#m0a86e909e9" x="628.230398" y="191.282818" style="fill: #ff7f0e; stroke: #ff7f0e"/>
     <use xlink:href="#m0a86e909e9" x="640.791437" y="199.11503" style="fill: #ff7f0e; stroke: #ff7f0e"/>
     <use xlink:href="#m0a86e909e9" x="653.352476" y="206.913408" style="fill: #ff7f0e; stroke: #ff7f0e"/>
     <use xlink:href="#m0a86e909e9" x="665.913515" y="216.813449" style="fill: #ff7f0e; stroke: #ff7f0e"/>
     <use xlink:href="#m0a86e909e9" x="678.474554" y="225.572366" style="fill: #ff7f0e; stroke: #ff7f0e"/>
     <use xlink:href="#m0a86e909e9" x="691.035593" y="234.448266" style="fill: #ff7f0e; stroke: #ff7f0e"/>
     <use xlink:href="#m0a86e909e9" x="703.596631" y="243.076419" style="fill: #ff7f0e; stroke: #ff7f0e"/>
     <use xlink:href="#m0a86e909e9" x="716.15767" y="249.571942" style="fill: #ff7f0e; stroke: #ff7f0e"/>
     <use xlink:href="#m0a86e909e9" x="728.718709" y="251.933178" style="fill: #ff7f0e; stroke: #ff7f0e"/>
     <use xlink:href="#m0a86e909e9" x="741.279748" y="253.463579" style="fill: #ff7f0e; stroke: #ff7f0e"/>
     <use xlink:href="#m0a86e909e9" x="753.840787" y="259.611668" style="fill: #ff7f0e; stroke: #ff7f0e"/>
     <use xlink:href="#m0a86e909e9" x="766.401826" y="261.194981" style="fill: #ff7f0e; stroke: #ff7f0e"/>
    </g>
   </g>
   <g id="line2d_59">
    <path d="M 452.375852 41.968548 
L 464.936891 56.514271 
L 477.49793 68.964621 
L 490.058969 82.85208 
L 502.620008 91.720165 
L 515.181047 105.523511 
L 527.742086 117.354015 
L 540.303125 131.914026 
L 552.864164 143.790738 
L 565.425203 156.491022 
L 577.986242 167.772111 
L 590.547281 179.244437 
L 603.10832 189.011378 
L 615.669359 199.814097 
L 628.230398 210.415184 
L 640.791437 219.932975 
L 653.352476 228.720963 
L 665.913515 239.56349 
L 678.474554 248.963735 
L 691.035593 258.322018 
L 703.596631 266.816232 
L 716.15767 273.878102 
L 728.718709 276.732222 
L 741.279748 279.177414 
L 753.840787 286.046344 
L 766.401826 287.614943 
" clip-path="url(#pe4c4be3b7e)" style="fill: none; stroke: #2ca02c; stroke-linecap: square"/>
    <g clip-path="url(#pe4c4be3b7e)">
     <use xlink:href="#m8642ab1590" x="452.375852" y="41.968548" style="fill: #2ca02c; stroke: #2ca02c"/>
     <use xlink:href="#m8642ab1590" x="464.936891" y="56.514271" style="fill: #2ca02c; stroke: #2ca02c"/>
     <use xlink:href="#m8642ab1590" x="477.49793" y="68.964621" style="fill: #2ca02c; stroke: #2ca02c"/>
     <use xlink:href="#m8642ab1590" x="490.058969" y="82.85208" style="fill: #2ca02c; stroke: #2ca02c"/>
     <use xlink:href="#m8642ab1590" x="502.620008" y="91.720165" style="fill: #2ca02c; stroke: #2ca02c"/>
     <use xlink:href="#m8642ab1590" x="515.181047" y="105.523511" style="fill: #2ca02c; stroke: #2ca02c"/>
     <use xlink:href="#m8642ab1590" x="527.742086" y="117.354015" style="fill: #2ca02c; stroke: #2ca02c"/>
     <use xlink:href="#m8642ab1590" x="540.303125" y="131.914026" style="fill: #2ca02c; stroke: #2ca02c"/>
     <use xlink:href="#m8642ab1590" x="552.864164" y="143.790738" style="fill: #2ca02c; stroke: #2ca02c"/>
     <use xlink:href="#m8642ab1590" x="565.425203" y="156.491022" style="fill: #2ca02c; stroke: #2ca02c"/>
     <use xlink:href="#m8642ab1590" x="577.986242" y="167.772111" style="fill: #2ca02c; stroke: #2ca02c"/>
     <use xlink:href="#m8642ab1590" x="590.547281" y="179.244437" style="fill: #2ca02c; stroke: #2ca02c"/>
     <use xlink:href="#m8642ab1590" x="603.10832" y="189.011378" style="fill: #2ca02c; stroke: #2ca02c"/>
     <use xlink:href="#m8642ab1590" x="615.669359" y="199.814097" style="fill: #2ca02c; stroke: #2ca02c"/>
     <use xlink:href="#m8642ab1590" x="628.230398" y="210.415184" style="fill: #2ca02c; stroke: #2ca02c"/>
     <use xlink:href="#m8642ab1590" x="640.791437" y="219.932975" style="fill: #2ca02c; stroke: #2ca02c"/>
     <use xlink:href="#m8642ab1590" x="653.352476" y="228.720963" style="fill: #2ca02c; stroke: #2ca02c"/>
     <use xlink:href="#m8642ab1590" x="665.913515" y="239.56349" style="fill: #2ca02c; stroke: #2ca02c"/>
     <use xlink:href="#m8642ab1590" x="678.474554" y="248.963735" style="fill: #2ca02c; stroke: #2ca02c"/>
     <use xlink:href="#m8642ab1590" x="691.035593" y="258.322018" style="fill: #2ca02c; stroke: #2ca02c"/>
     <use xlink:href="#m8642ab1590" x="703.596631" y="266.816232" style="fill: #2ca02c; stroke: #2ca02c"/>
     <use xlink:href="#m8642ab1590" x="716.15767" y="273.878102" style="fill: #2ca02c; stroke: #2ca02c"/>
     <use xlink:href="#m8642ab1590" x="728.718709" y="276.732222" style="fill: #2ca02c; stroke: #2ca02c"/>
     <use xlink:href="#m8642ab1590" x="741.279748" y="279.177414" style="fill: #2ca02c; stroke: #2ca02c"/>
     <use xlink:href="#m8642ab1590" x="753.840787" y="286.046344" style="fill: #2ca02c; stroke: #2ca02c"/>
     <use xlink:href="#m8642ab1590" x="766.401826" y="287.614943" style="fill: #2ca02c; stroke: #2ca02c"/>
    </g>
   </g>
   <g id="patch_9">
    <path d="M 436.674554 301.34175 
L 436.674554 24.14175 
" style="fill: none; stroke: #000000; stroke-width: 0.8; stroke-linejoin: miter; stroke-linecap: square"/>
   </g>
   <g id="patch_10">
    <path d="M 782.103125 301.34175 
L 782.103125 24.14175 
" style="fill: none; stroke: #000000; stroke-width: 0.8; stroke-linejoin: miter; stroke-linecap: square"/>
   </g>
   <g id="patch_11">
    <path d="M 436.674554 301.34175 
L 782.103125 301.34175 
" style="fill: none; stroke: #000000; stroke-width: 0.8; stroke-linejoin: miter; stroke-linecap: square"/>
   </g>
   <g id="patch_12">
    <path d="M 436.674554 24.14175 
L 782.103125 24.14175 
" style="fill: none; stroke: #000000; stroke-width: 0.8; stroke-linejoin: miter; stroke-linecap: square"/>
   </g>
   <g id="text_33">
    <!-- Top-1 Accuracy on ImageNet-1k (B50, 25 phases) -->
    <g transform="translate(428.370714 18.14175) scale(0.144 -0.144)">
     <defs>
      <path id="DejaVuSerif-6d" d="M 3316 2675 
Q 3481 3041 3739 3227 
Q 3997 3413 4341 3413 
Q 4863 3413 5119 3089 
Q 5375 2766 5375 2113 
L 5375 331 
L 5894 331 
L 5894 0 
L 4300 0 
L 4300 331 
L 4800 331 
L 4800 2047 
Q 4800 2556 4650 2772 
Q 4500 2988 4153 2988 
Q 3769 2988 3567 2697 
Q 3366 2406 3366 1850 
L 3366 331 
L 3866 331 
L 3866 0 
L 2291 0 
L 2291 331 
L 2791 331 
L 2791 2069 
Q 2791 2566 2641 2777 
Q 2491 2988 2144 2988 
Q 1759 2988 1557 2697 
Q 1356 2406 1356 1850 
L 1356 331 
L 1856 331 
L 1856 0 
L 263 0 
L 263 331 
L 781 331 
L 781 2994 
L 231 2994 
L 231 3322 
L 1356 3322 
L 1356 2731 
Q 1516 3063 1762 3238 
Q 2009 3413 2322 3413 
Q 2709 3413 2968 3220 
Q 3228 3028 3316 2675 
z
" transform="scale(0.015625)"/>
      <path id="DejaVuSerif-67" d="M 3359 2988 
L 3359 72 
Q 3359 -644 2965 -1033 
Q 2572 -1422 1844 -1422 
Q 1516 -1422 1216 -1362 
Q 916 -1303 641 -1184 
L 641 -488 
L 941 -488 
Q 997 -813 1206 -963 
Q 1416 -1113 1806 -1113 
Q 2313 -1113 2548 -827 
Q 2784 -541 2784 72 
L 2784 519 
Q 2616 206 2355 57 
Q 2094 -91 1709 -91 
Q 1097 -91 708 395 
Q 319 881 319 1663 
Q 319 2444 706 2928 
Q 1094 3413 1709 3413 
Q 2094 3413 2355 3264 
Q 2616 3116 2784 2803 
L 2784 3322 
L 3909 3322 
L 3909 2988 
L 3359 2988 
z
M 2784 1825 
Q 2784 2422 2554 2737 
Q 2325 3053 1888 3053 
Q 1444 3053 1217 2703 
Q 991 2353 991 1663 
Q 991 975 1217 622 
Q 1444 269 1888 269 
Q 2325 269 2554 583 
Q 2784 897 2784 1497 
L 2784 1825 
z
" transform="scale(0.015625)"/>
      <path id="DejaVuSerif-4e" d="M 313 0 
L 313 331 
L 941 331 
L 941 4331 
L 313 4331 
L 313 4666 
L 1509 4666 
L 4306 984 
L 4306 4331 
L 3681 4331 
L 3681 4666 
L 5319 4666 
L 5319 4331 
L 4691 4331 
L 4691 -91 
L 4313 -91 
L 1325 3841 
L 1325 331 
L 1953 331 
L 1953 0 
L 313 0 
z
" transform="scale(0.015625)"/>
      <path id="DejaVuSerif-74" d="M 691 2988 
L 184 2988 
L 184 3322 
L 691 3322 
L 691 4353 
L 1269 4353 
L 1269 3322 
L 2350 3322 
L 2350 2988 
L 1269 2988 
L 1269 878 
Q 1269 456 1350 337 
Q 1431 219 1650 219 
Q 1875 219 1978 351 
Q 2081 484 2088 781 
L 2522 781 
Q 2497 328 2275 118 
Q 2053 -91 1600 -91 
Q 1103 -91 897 129 
Q 691 350 691 878 
L 691 2988 
z
" transform="scale(0.015625)"/>
      <path id="DejaVuSerif-6b" d="M 1831 0 
L 219 0 
L 219 331 
L 738 331 
L 738 4531 
L 184 4531 
L 184 4863 
L 1313 4863 
L 1313 1697 
L 2713 2988 
L 2234 2988 
L 2234 3322 
L 3738 3322 
L 3738 2988 
L 3169 2988 
L 2181 2075 
L 3444 331 
L 3922 331 
L 3922 0 
L 2284 0 
L 2284 331 
L 2759 331 
L 1766 1697 
L 1313 1275 
L 1313 331 
L 1831 331 
L 1831 0 
z
" transform="scale(0.015625)"/>
     </defs>
     <use xlink:href="#DejaVuSerif-54"/>
     <use xlink:href="#DejaVuSerif-6f" x="58.949219"/>
     <use xlink:href="#DejaVuSerif-70" x="119.154297"/>
     <use xlink:href="#DejaVuSerif-2d" x="183.167969"/>
     <use xlink:href="#DejaVuSerif-31" x="216.957031"/>
     <use xlink:href="#DejaVuSerif-20" x="280.580078"/>
     <use xlink:href="#DejaVuSerif-41" x="312.367188"/>
     <use xlink:href="#DejaVuSerif-63" x="384.583984"/>
     <use xlink:href="#DejaVuSerif-63" x="440.589844"/>
     <use xlink:href="#DejaVuSerif-75" x="496.595703"/>
     <use xlink:href="#DejaVuSerif-72" x="561"/>
     <use xlink:href="#DejaVuSerif-61" x="608.802734"/>
     <use xlink:href="#DejaVuSerif-63" x="668.421875"/>
     <use xlink:href="#DejaVuSerif-79" x="724.427734"/>
     <use xlink:href="#DejaVuSerif-20" x="780.921875"/>
     <use xlink:href="#DejaVuSerif-6f" x="812.708984"/>
     <use xlink:href="#DejaVuSerif-6e" x="872.914062"/>
     <use xlink:href="#DejaVuSerif-20" x="937.318359"/>
     <use xlink:href="#DejaVuSerif-49" x="969.105469"/>
     <use xlink:href="#DejaVuSerif-6d" x="1008.607422"/>
     <use xlink:href="#DejaVuSerif-61" x="1103.431641"/>
     <use xlink:href="#DejaVuSerif-67" x="1163.050781"/>
     <use xlink:href="#DejaVuSerif-65" x="1227.064453"/>
     <use xlink:href="#DejaVuSerif-4e" x="1286.244141"/>
     <use xlink:href="#DejaVuSerif-65" x="1373.744141"/>
     <use xlink:href="#DejaVuSerif-74" x="1432.923828"/>
     <use xlink:href="#DejaVuSerif-2d" x="1473.109375"/>
     <use xlink:href="#DejaVuSerif-31" x="1506.898438"/>
     <use xlink:href="#DejaVuSerif-6b" x="1570.521484"/>
     <use xlink:href="#DejaVuSerif-20" x="1631.117188"/>
     <use xlink:href="#DejaVuSerif-28" x="1662.904297"/>
     <use xlink:href="#DejaVuSerif-42" x="1701.917969"/>
     <use xlink:href="#DejaVuSerif-35" x="1775.404297"/>
     <use xlink:href="#DejaVuSerif-30" x="1839.027344"/>
     <use xlink:href="#DejaVuSerif-2c" x="1902.650391"/>
     <use xlink:href="#DejaVuSerif-20" x="1934.4375"/>
     <use xlink:href="#DejaVuSerif-32" x="1966.224609"/>
     <use xlink:href="#DejaVuSerif-35" x="2029.847656"/>
     <use xlink:href="#DejaVuSerif-20" x="2093.470703"/>
     <use xlink:href="#DejaVuSerif-70" x="2125.257812"/>
     <use xlink:href="#DejaVuSerif-68" x="2189.271484"/>
     <use xlink:href="#DejaVuSerif-61" x="2253.675781"/>
     <use xlink:href="#DejaVuSerif-73" x="2313.294922"/>
     <use xlink:href="#DejaVuSerif-65" x="2364.613281"/>
     <use xlink:href="#DejaVuSerif-73" x="2423.792969"/>
     <use xlink:href="#DejaVuSerif-29" x="2475.111328"/>
    </g>
   </g>
   <g id="legend_2">
    <g id="patch_13">
     <path d="M 691.356875 86.583 
L 773.703125 86.583 
Q 776.103125 86.583 776.103125 84.183 
L 776.103125 32.54175 
Q 776.103125 30.14175 773.703125 30.14175 
L 691.356875 30.14175 
Q 688.956875 30.14175 688.956875 32.54175 
L 688.956875 84.183 
Q 688.956875 86.583 691.356875 86.583 
z
" style="fill: #ffffff; opacity: 0.8; stroke: #cccccc; stroke-linejoin: miter"/>
    </g>
    <g id="line2d_60">
     <path d="M 693.756875 39.859875 
L 705.756875 39.859875 
L 717.756875 39.859875 
" style="fill: none; stroke: #1f77b4; stroke-linecap: square"/>
     <g>
      <use xlink:href="#m50c66ad861" x="705.756875" y="39.859875" style="fill: #1f77b4; stroke: #1f77b4"/>
     </g>
    </g>
    <g id="text_34">
     <!-- ACIL -->
     <g transform="translate(727.356875 44.059875) scale(0.12 -0.12)">
      <use xlink:href="#DejaVuSerif-41"/>
      <use xlink:href="#DejaVuSerif-43" x="72.216797"/>
      <use xlink:href="#DejaVuSerif-49" x="148.730469"/>
      <use xlink:href="#DejaVuSerif-4c" x="188.232422"/>
     </g>
    </g>
    <g id="line2d_61">
     <path d="M 693.756875 57.473625 
L 705.756875 57.473625 
L 717.756875 57.473625 
" style="fill: none; stroke: #ff7f0e; stroke-linecap: square"/>
     <g>
      <use xlink:href="#m0a86e909e9" x="705.756875" y="57.473625" style="fill: #ff7f0e; stroke: #ff7f0e"/>
     </g>
    </g>
    <g id="text_35">
     <!-- DS-AL -->
     <g transform="translate(727.356875 61.673625) scale(0.12 -0.12)">
      <use xlink:href="#DejaVuSerif-44"/>
      <use xlink:href="#DejaVuSerif-53" x="80.175781"/>
      <use xlink:href="#DejaVuSerif-2d" x="152.306641"/>
      <use xlink:href="#DejaVuSerif-41" x="186.095703"/>
      <use xlink:href="#DejaVuSerif-4c" x="258.3125"/>
     </g>
    </g>
    <g id="line2d_62">
     <path d="M 693.756875 75.087375 
L 705.756875 75.087375 
L 717.756875 75.087375 
" style="fill: none; stroke: #2ca02c; stroke-linecap: square"/>
     <g>
      <use xlink:href="#m8642ab1590" x="705.756875" y="75.087375" style="fill: #2ca02c; stroke: #2ca02c"/>
     </g>
    </g>
    <g id="text_36">
     <!-- GKEAL -->
     <g transform="translate(727.356875 79.287375) scale(0.12 -0.12)">
      <use xlink:href="#DejaVuSerif-47"/>
      <use xlink:href="#DejaVuSerif-4b" x="79.882812"/>
      <use xlink:href="#DejaVuSerif-45" x="154.589844"/>
      <use xlink:href="#DejaVuSerif-41" x="227.587891"/>
      <use xlink:href="#DejaVuSerif-4c" x="299.804688"/>
     </g>
    </g>
   </g>
  </g>
 </g>
 <defs>
  <clipPath id="pbca93549e4">
   <rect x="56.703125" y="24.14175" width="345.428571" height="277.2"/>
  </clipPath>
  <clipPath id="pe4c4be3b7e">
   <rect x="436.674554" y="24.14175" width="345.428571" height="277.2"/>
  </clipPath>
 </defs>
</svg>
